<?xml version="1.0" encoding="utf-8"?>
<!-- Generator: Adobe Illustrator 23.0.0, SVG Export Plug-In . SVG Version: 6.00 Build 0)  -->
<svg version="1.1" id="Layer_1" xmlns="http://www.w3.org/2000/svg" xmlns:xlink="http://www.w3.org/1999/xlink" x="0px" y="0px"
	 viewBox="0 0 129.06 129.06" style="enable-background:new 0 0 129.06 129.06;" xml:space="preserve">
<style type="text/css">
	.st0{fill:#EB008B;}
</style>
<g id="FQq1u7.tif_1_">
	<g>
		<g id="XMLID_85_">
			<path id="XMLID_86_" class="st0" d="M75.27,91.47c0,0.39,0,0.68,0,0.99c4.53,0.47,6.97,2.7,5.65,7.45
				c-0.72,2.58-2.93,3.48-5.62,3.46c-0.02,0.36-0.04,0.7-0.06,1.09c0.59,0.06,1.09,0.11,1.59,0.17c2.71,0.35,4.52,2.48,4.51,5.33
				c0,2.74-1.84,4.94-4.48,5.25c-1.08,0.12-2.19,0.11-3.28,0.08c-0.62-0.02-1.05,0.09-1.24,0.76c-1,3.52-3.46,4.72-6.93,4.43
				c-1.64-0.13-3.29-0.05-4.93-0.13c-1.45-0.06-2.46-0.83-3.09-2.13c-0.1-0.2-0.27-0.37-0.3-0.58c-0.41-2.18-1.85-2.47-3.82-2.41
				c-3.87,0.11-6.27-2.93-5.5-6.66c0.32-1.57,1.28-2.63,2.72-3.19c0.98-0.38,2.02-0.61,3.16-0.94c0.02-0.25,0.05-0.6,0.08-1.04
				c-1.9-0.06-3.74-0.4-4.73-2.08c-0.62-1.05-1.07-2.38-1.08-3.58c-0.02-3.16,1.73-4.65,5.74-5.23c0.02-0.3,0.03-0.61,0.05-0.93
				c-0.14-0.07-0.23-0.14-0.33-0.15c-0.73-0.07-1.46-0.09-2.19-0.18c-2.35-0.28-3.66-1.39-4.23-3.67c-0.33-1.31-0.56-2.65-0.8-3.98
				c-0.92-5.06-3.32-9.31-6.88-12.98c-5.06-5.21-8.21-11.43-9.45-18.58c-2.57-14.86,4.82-29.77,18.22-36.78
				c14.24-7.45,31.22-4.61,42.02,7.33c7.41,8.2,10.3,17.96,8.7,28.94c-1,6.86-3.96,12.82-8.66,17.89c-4.04,4.35-7,9.26-8.18,15.14
				c-0.12,0.61-0.24,1.22-0.32,1.84c-0.43,3.17-2.32,4.9-5.48,5.01C75.89,91.42,75.63,91.45,75.27,91.47z M75.52,87.79
				c1.7,0.34,2.25-0.14,2.64-1.72c0.67-2.72,1.33-5.47,2.28-8.1c1.6-4.4,4.59-7.92,7.61-11.43c6.92-8.03,9.2-17.36,6.82-27.65
				c-3.84-16.61-19.64-27.02-36.34-23.81c-12.02,2.31-20.29,9.51-24.07,21.12c-3.8,11.66-1.44,22.39,6.98,31.45
				c5.04,5.42,8.21,11.57,8.98,18.96c0.04,0.4,0.48,0.98,0.84,1.08c0.82,0.23,1.7,0.21,2.67,0.3c0-0.57-0.09-1,0.02-1.36
				c0.17-0.56,0.47-1.09,0.73-1.62c0.22-0.45,0.63-0.89,0.64-1.34c0.05-3.88,0.01-7.76,0.05-11.64c0.01-0.8-0.28-1.04-1.01-1.21
				c-2.7-0.62-4.78-2.11-6.2-4.52c-0.2-0.34-0.68-0.64-1.07-0.7c-2.55-0.4-4.62-1.58-6.19-3.61c-2.03-2.62-2.45-5.56-1.54-8.7
				c-0.11-0.1-0.18-0.19-0.27-0.24c-5.65-2.91-6.2-11.35-1.57-15.15c0.25-0.21,0.37-0.77,0.32-1.13c-0.34-2.92,0.81-5.1,3.14-6.78
				c0.42-0.3,0.8-0.82,0.96-1.31c1.04-3.21,4.19-5.71,7.45-5.68c0.92,0.01,1.39-0.27,1.91-1.02c1.72-2.48,4.19-3.7,7.19-3.31
				c2.91,0.39,4.64,2.29,5.36,5.11c0.01,0.05,0.1,0.08,0.23,0.19c0.09-0.26,0.16-0.48,0.23-0.7c0.75-2.28,2.33-3.68,4.63-4.23
				c3.22-0.78,6.46,0.59,8.21,3.46c0.29,0.48,0.54,0.73,1.17,0.73c3.84-0.05,6.8,2.12,8.02,5.75c0.11,0.33,0.4,0.68,0.71,0.86
				c2.45,1.44,3.73,3.84,3.34,6.62c-0.11,0.82,0.1,1.32,0.68,1.89c4.29,4.22,3.58,11.26-1.43,14.54c-0.18,0.12-0.34,0.25-0.5,0.36
				c1.56,6.68-1.2,10.87-8.06,12.36c-0.26,0.06-0.55,0.33-0.68,0.58c-1.3,2.57-3.42,4.04-6.18,4.65c-0.66,0.15-0.89,0.42-0.88,1.1
				c0.03,3.48,0.01,6.95,0.01,10.43c0,0.65,0,1.3,0,2.04C76.13,84.34,75.25,86.42,75.52,87.79z M46.41,47.13
				c0.31-1.74-0.21-3.06-1.48-4.1c-0.54-0.44-1.21-0.79-1.58-1.34c-0.32-0.47-0.46-1.2-0.37-1.76c0.14-0.77,0.88-1.15,1.61-0.96
				c0.82,0.22,1.7,0.54,2.34,1.07c1.91,1.57,2.9,3.67,2.8,6.16c-0.04,0.91,0.26,1.33,1.05,1.74c3.62,1.89,5.19,5.87,3.84,9.57
				c-0.47,1.29-1.35,1.78-2.41,1.36c-1.16-0.46-1.4-1.27-0.99-2.59c0.24-0.78,0.45-1.66,0.32-2.44c-0.28-1.68-1.41-2.82-3-3.34
				c-1.6-0.53-3.05,0-4.23,1.14c-1.79,1.74-2.4,3.88-1.54,6.22c0.93,2.53,2.76,4.22,5.56,4.25c1.69,0.01,2.55,0.55,3.19,2.13
				c0.98,2.43,3.67,3.72,6,3.18c2.69-0.63,3.68-2.03,3.68-5.26c0-7.39,0-14.79,0-22.18c0-4.94,0.01-9.88-0.01-14.82
				c-0.01-2.26-1.74-3.55-3.93-2.97c-1.67,0.44-2.71,1.49-3.11,3.2c-0.36,1.54-1.14,1.92-2.64,1.49c-0.75-0.22-1.6-0.38-2.35-0.24
				c-2.11,0.37-3.49,2.79-3.12,5.21c0.37,2.35,2.32,3.84,4.72,3.59c2.38-0.25,3.85-1.73,4.08-4.11c0.13-1.36,0.7-2.01,1.71-1.98
				c1.06,0.04,1.58,0.79,1.52,2.21c-0.08,2.03-0.83,3.8-2.36,5.14c-0.78,0.68-0.94,1.43-0.82,2.34c0.23,1.7,1.2,2.84,2.67,3.65
				c1.04,0.57,1.38,1.68,0.88,2.6c-0.46,0.84-1.6,1.18-2.6,0.7c-2.25-1.09-3.83-2.78-4.5-5.23c-0.15-0.56-0.21-1.14-0.33-1.8
				c-1.84,0.18-3.61,0.05-5.22-0.9c-1.64-0.96-2.67-2.42-3.38-4.25c-1.08,1.19-1.35,2.39-0.81,3.75c0.59,1.47,0.47,1.82-0.88,2.71
				c-0.33,0.22-0.66,0.46-0.96,0.73c-2.92,2.71-2.22,7.85,1.31,9.33C42.34,48.46,44.14,47.45,46.41,47.13z M77.97,39.22
				c-0.07,0.11-0.12,0.17-0.14,0.23c-0.08,0.36-0.13,0.72-0.22,1.07c-0.63,2.61-2.06,4.58-4.54,5.7c-1.12,0.51-2.22,0.1-2.69-0.92
				c-0.5-1.07-0.09-1.71,1.02-2.49c0.89-0.62,1.76-1.46,2.27-2.4c0.68-1.27,0.64-2.56-0.59-3.76c-1.49-1.45-2.18-3.36-2.04-5.49
				c0.07-1.16,0.7-1.83,1.64-1.83c0.97,0,1.55,0.65,1.64,1.81c0.24,3.07,2.85,4.91,5.82,4.03c2.87-0.85,3.53-3.37,2.93-5.9
				c-0.5-2.08-3.1-3.13-5.39-2.36c-1.11,0.38-2.02-0.1-2.36-1.24c-0.12-0.42-0.17-0.87-0.34-1.27c-0.69-1.64-2.66-2.66-4.43-2.31
				c-1.63,0.32-2.34,1.39-2.34,3.55c0,2.09,0,4.17,0,6.26c0,10.25,0,20.49,0,30.74c0,2.58,1.54,4.49,3.87,4.85
				c2.36,0.36,4.99-1.24,6.05-3.67c0.65-1.5,0.91-1.66,2.56-1.64c2.89,0.04,5.35-1.8,5.89-4.45c0.34-1.68-0.03-3.26-0.77-4.78
				c-1.12-2.3-2.84-3.04-5.23-2.25c-2.4,0.8-3.61,2.82-3.09,5.19c0.11,0.5,0.29,0.99,0.35,1.49c0.12,0.92-0.4,1.66-1.33,1.83
				c-0.86,0.16-1.56-0.04-1.97-0.96c-1.7-3.81-0.04-8.46,3.75-10.24c0.73-0.34,0.92-0.68,0.89-1.46c-0.16-3.26,1.62-6.15,4.41-7.32
				c1.03-0.43,1.96-0.1,2.37,0.85c0.41,0.94,0.09,1.76-0.93,2.37c-2.01,1.21-2.81,2.76-2.47,4.89c2.2,0.33,3.96,1.49,5.36,3.31
				c1.95-1.07,2.94-2.73,3.09-4.8c0.16-2.25-0.79-4.05-2.69-5.31c-1.47-0.97-1.56-1.23-0.93-2.87c0.51-1.34,0.18-2.64-0.91-3.49
				C84.85,37.94,81.85,39.37,77.97,39.22z M63.86,64.55c-0.48,2.96-2.2,5-5.05,6.15c-0.26,0.1-0.44,0.69-0.45,1.06
				c-0.03,3.92-0.02,7.83-0.02,11.75c0,0.35,0.04,0.7,0.06,1.08c3.78,0,7.45,0,11.25,0c0-0.47,0-0.86,0-1.26
				c0-3.33-0.07-6.66,0.03-9.99c0.05-1.61-0.07-2.85-1.9-3.42c-0.7-0.22-1.39-0.89-1.82-1.53C65.18,67.2,64.58,65.87,63.86,64.55z
				 M65.04,112.06C65.04,112.06,65.04,112.06,65.04,112.06c3.77,0.01,7.54,0.01,11.31,0c1.35,0,1.97-0.63,1.97-1.92
				c0-1.32-0.7-2.11-1.97-2.13c-6.26-0.1-12.51-0.2-18.77-0.25c-1.48-0.01-2.98,0.11-4.45,0.35c-1.41,0.23-1.8,1.01-1.48,2.39
				c0.26,1.09,0.86,1.55,2.18,1.55C57.57,112.07,61.3,112.06,65.04,112.06z M64.58,96.06c0,0.01,0,0.02,0,0.03
				c-3.73,0-7.46-0.01-11.19,0c-1.37,0-2.08,0.72-2.07,1.99c0.02,1.33,0.67,2,2.06,2c7.02,0,14.04-0.02,21.07-0.06
				c0.83,0,1.67-0.14,2.5-0.29c1.04-0.18,1.42-0.86,1.38-1.9c-0.03-1.01-0.57-1.45-1.48-1.57c-0.8-0.1-1.6-0.2-2.4-0.2
				C71.17,96.05,67.87,96.06,64.58,96.06z M72.15,87.99c-5.05,0-9.97,0-14.88,0c0,1.57,0,3.06,0,4.55c4.99,0,9.92,0,14.88,0
				C72.15,90.99,72.15,89.51,72.15,87.99z M72.15,103.34c-4.84,0-9.56,0.01-14.27-0.01c-0.72,0-0.79,0.32-0.5,1.04
				c4.88,0,9.8,0,14.77,0C72.15,104.09,72.15,103.78,72.15,103.34z M69.32,115.61c-3.08,0-6.02,0-8.95,0
				c-0.07,0.1-0.14,0.21-0.21,0.31c0.46,0.42,0.89,1.17,1.38,1.21c1.89,0.16,3.8,0.12,5.7,0.1
				C68.26,117.23,68.92,116.66,69.32,115.61z"/>
		</g>
	</g>
</g>
</svg>
