<?xml version="1.0" encoding="utf-8"?>
<!-- Generator: Adobe Illustrator 23.0.0, SVG Export Plug-In . SVG Version: 6.00 Build 0)  -->
<svg version="1.1" xmlns="http://www.w3.org/2000/svg" xmlns:xlink="http://www.w3.org/1999/xlink" x="0px" y="0px"
	 viewBox="0 0 129.06 129.06" style="enable-background:new 0 0 129.06 129.06;" xml:space="preserve">
<style type="text/css">
	.st0{display:none;}
	.st1{display:inline;}
	.st2{fill:#EB008B;}
</style>
<g id="Layer_1" class="st0">
	<g id="FQq1u7.tif_1_" class="st1">
		<g>
			<g id="XMLID_85_">
				<path id="XMLID_86_" class="st2" d="M75.27,91.47c0,0.39,0,0.68,0,0.99c4.53,0.47,6.97,2.7,5.65,7.45
					c-0.72,2.58-2.93,3.48-5.62,3.46c-0.02,0.36-0.04,0.7-0.06,1.09c0.59,0.06,1.09,0.11,1.59,0.17c2.71,0.35,4.52,2.48,4.51,5.33
					c0,2.74-1.84,4.94-4.48,5.25c-1.08,0.12-2.19,0.11-3.28,0.08c-0.62-0.02-1.05,0.09-1.24,0.76c-1,3.52-3.46,4.72-6.93,4.43
					c-1.64-0.13-3.29-0.05-4.93-0.13c-1.45-0.06-2.46-0.83-3.09-2.13c-0.1-0.2-0.27-0.37-0.3-0.58c-0.41-2.18-1.85-2.47-3.82-2.41
					c-3.87,0.11-6.27-2.93-5.5-6.66c0.32-1.57,1.28-2.63,2.72-3.19c0.98-0.38,2.02-0.61,3.16-0.94c0.02-0.25,0.05-0.6,0.08-1.04
					c-1.9-0.06-3.74-0.4-4.73-2.08c-0.62-1.05-1.07-2.38-1.08-3.58c-0.02-3.16,1.73-4.65,5.74-5.23c0.02-0.3,0.03-0.61,0.05-0.93
					c-0.14-0.07-0.23-0.14-0.33-0.15c-0.73-0.07-1.46-0.09-2.19-0.18c-2.35-0.28-3.66-1.39-4.23-3.67c-0.33-1.31-0.56-2.65-0.8-3.98
					c-0.92-5.06-3.32-9.31-6.88-12.98c-5.06-5.21-8.21-11.43-9.45-18.58c-2.57-14.86,4.82-29.77,18.22-36.78
					c14.24-7.45,31.22-4.61,42.02,7.33c7.41,8.2,10.3,17.96,8.7,28.94c-1,6.86-3.96,12.82-8.66,17.89c-4.04,4.35-7,9.26-8.18,15.14
					c-0.12,0.61-0.24,1.22-0.32,1.84c-0.43,3.17-2.32,4.9-5.48,5.01C75.89,91.42,75.63,91.45,75.27,91.47z M75.52,87.79
					c1.7,0.34,2.25-0.14,2.64-1.72c0.67-2.72,1.33-5.47,2.28-8.1c1.6-4.4,4.59-7.92,7.61-11.43c6.92-8.03,9.2-17.36,6.82-27.65
					c-3.84-16.61-19.64-27.02-36.34-23.81c-12.02,2.31-20.29,9.51-24.07,21.12c-3.8,11.66-1.44,22.39,6.98,31.45
					c5.04,5.42,8.21,11.57,8.98,18.96c0.04,0.4,0.48,0.98,0.84,1.08c0.82,0.23,1.7,0.21,2.67,0.3c0-0.57-0.09-1,0.02-1.36
					c0.17-0.56,0.47-1.09,0.73-1.62c0.22-0.45,0.63-0.89,0.64-1.34c0.05-3.88,0.01-7.76,0.05-11.64c0.01-0.8-0.28-1.04-1.01-1.21
					c-2.7-0.62-4.78-2.11-6.2-4.52c-0.2-0.34-0.68-0.64-1.07-0.7c-2.55-0.4-4.62-1.58-6.19-3.61c-2.03-2.62-2.45-5.56-1.54-8.7
					c-0.11-0.1-0.18-0.19-0.27-0.24c-5.65-2.91-6.2-11.35-1.57-15.15c0.25-0.21,0.37-0.77,0.32-1.13c-0.34-2.92,0.81-5.1,3.14-6.78
					c0.42-0.3,0.8-0.82,0.96-1.31c1.04-3.21,4.19-5.71,7.45-5.68c0.92,0.01,1.39-0.27,1.91-1.02c1.72-2.48,4.19-3.7,7.19-3.31
					c2.91,0.39,4.64,2.29,5.36,5.11c0.01,0.05,0.1,0.08,0.23,0.19c0.09-0.26,0.16-0.48,0.23-0.7c0.75-2.28,2.33-3.68,4.63-4.23
					c3.22-0.78,6.46,0.59,8.21,3.46c0.29,0.48,0.54,0.73,1.17,0.73c3.84-0.05,6.8,2.12,8.02,5.75c0.11,0.33,0.4,0.68,0.71,0.86
					c2.45,1.44,3.73,3.84,3.34,6.62c-0.11,0.82,0.1,1.32,0.68,1.89c4.29,4.22,3.58,11.26-1.43,14.54c-0.18,0.12-0.34,0.25-0.5,0.36
					c1.56,6.68-1.2,10.87-8.06,12.36c-0.26,0.06-0.55,0.33-0.68,0.58c-1.3,2.57-3.42,4.04-6.18,4.65c-0.66,0.15-0.89,0.42-0.88,1.1
					c0.03,3.48,0.01,6.95,0.01,10.43c0,0.65,0,1.3,0,2.04C76.13,84.34,75.25,86.42,75.52,87.79z M46.41,47.13
					c0.31-1.74-0.21-3.06-1.48-4.1c-0.54-0.44-1.21-0.79-1.58-1.34c-0.32-0.47-0.46-1.2-0.37-1.76c0.14-0.77,0.88-1.15,1.61-0.96
					c0.82,0.22,1.7,0.54,2.34,1.07c1.91,1.57,2.9,3.67,2.8,6.16c-0.04,0.91,0.26,1.33,1.05,1.74c3.62,1.89,5.19,5.87,3.84,9.57
					c-0.47,1.29-1.35,1.78-2.41,1.36c-1.16-0.46-1.4-1.27-0.99-2.59c0.24-0.78,0.45-1.66,0.32-2.44c-0.28-1.68-1.41-2.82-3-3.34
					c-1.6-0.53-3.05,0-4.23,1.14c-1.79,1.74-2.4,3.88-1.54,6.22c0.93,2.53,2.76,4.22,5.56,4.25c1.69,0.01,2.55,0.55,3.19,2.13
					c0.98,2.43,3.67,3.72,6,3.18c2.69-0.63,3.68-2.03,3.68-5.26c0-7.39,0-14.79,0-22.18c0-4.94,0.01-9.88-0.01-14.82
					c-0.01-2.26-1.74-3.55-3.93-2.97c-1.67,0.44-2.71,1.49-3.11,3.2c-0.36,1.54-1.14,1.92-2.64,1.49c-0.75-0.22-1.6-0.38-2.35-0.24
					c-2.11,0.37-3.49,2.79-3.12,5.21c0.37,2.35,2.32,3.84,4.72,3.59c2.38-0.25,3.85-1.73,4.08-4.11c0.13-1.36,0.7-2.01,1.71-1.98
					c1.06,0.04,1.58,0.79,1.52,2.21c-0.08,2.03-0.83,3.8-2.36,5.14c-0.78,0.68-0.94,1.43-0.82,2.34c0.23,1.7,1.2,2.84,2.67,3.65
					c1.04,0.57,1.38,1.68,0.88,2.6c-0.46,0.84-1.6,1.18-2.6,0.7c-2.25-1.09-3.83-2.78-4.5-5.23c-0.15-0.56-0.21-1.14-0.33-1.8
					c-1.84,0.18-3.61,0.05-5.22-0.9c-1.64-0.96-2.67-2.42-3.38-4.25c-1.08,1.19-1.35,2.39-0.81,3.75c0.59,1.47,0.47,1.82-0.88,2.71
					c-0.33,0.22-0.66,0.46-0.96,0.73c-2.92,2.71-2.22,7.85,1.31,9.33C42.34,48.46,44.14,47.45,46.41,47.13z M77.97,39.22
					c-0.07,0.11-0.12,0.17-0.14,0.23c-0.08,0.36-0.13,0.72-0.22,1.07c-0.63,2.61-2.06,4.58-4.54,5.7c-1.12,0.51-2.22,0.1-2.69-0.92
					c-0.5-1.07-0.09-1.71,1.02-2.49c0.89-0.62,1.76-1.46,2.27-2.4c0.68-1.27,0.64-2.56-0.59-3.76c-1.49-1.45-2.18-3.36-2.04-5.49
					c0.07-1.16,0.7-1.83,1.64-1.83c0.97,0,1.55,0.65,1.64,1.81c0.24,3.07,2.85,4.91,5.82,4.03c2.87-0.85,3.53-3.37,2.93-5.9
					c-0.5-2.08-3.1-3.13-5.39-2.36c-1.11,0.38-2.02-0.1-2.36-1.24c-0.12-0.42-0.17-0.87-0.34-1.27c-0.69-1.64-2.66-2.66-4.43-2.31
					c-1.63,0.32-2.34,1.39-2.34,3.55c0,2.09,0,4.17,0,6.26c0,10.25,0,20.49,0,30.74c0,2.58,1.54,4.49,3.87,4.85
					c2.36,0.36,4.99-1.24,6.05-3.67c0.65-1.5,0.91-1.66,2.56-1.64c2.89,0.04,5.35-1.8,5.89-4.45c0.34-1.68-0.03-3.26-0.77-4.78
					c-1.12-2.3-2.84-3.04-5.23-2.25c-2.4,0.8-3.61,2.82-3.09,5.19c0.11,0.5,0.29,0.99,0.35,1.49c0.12,0.92-0.4,1.66-1.33,1.83
					c-0.86,0.16-1.56-0.04-1.97-0.96c-1.7-3.81-0.04-8.46,3.75-10.24c0.73-0.34,0.92-0.68,0.89-1.46c-0.16-3.26,1.62-6.15,4.41-7.32
					c1.03-0.43,1.96-0.1,2.37,0.85c0.41,0.94,0.09,1.76-0.93,2.37c-2.01,1.21-2.81,2.76-2.47,4.89c2.2,0.33,3.96,1.49,5.36,3.31
					c1.95-1.07,2.94-2.73,3.09-4.8c0.16-2.25-0.79-4.05-2.69-5.31c-1.47-0.97-1.56-1.23-0.93-2.87c0.51-1.34,0.18-2.64-0.91-3.49
					C84.85,37.94,81.85,39.37,77.97,39.22z M63.86,64.55c-0.48,2.96-2.2,5-5.05,6.15c-0.26,0.1-0.44,0.69-0.45,1.06
					c-0.03,3.92-0.02,7.83-0.02,11.75c0,0.35,0.04,0.7,0.06,1.08c3.78,0,7.45,0,11.25,0c0-0.47,0-0.86,0-1.26
					c0-3.33-0.07-6.66,0.03-9.99c0.05-1.61-0.07-2.85-1.9-3.42c-0.7-0.22-1.39-0.89-1.82-1.53C65.18,67.2,64.58,65.87,63.86,64.55z
					 M65.04,112.06C65.04,112.06,65.04,112.06,65.04,112.06c3.77,0.01,7.54,0.01,11.31,0c1.35,0,1.97-0.63,1.97-1.92
					c0-1.32-0.7-2.11-1.97-2.13c-6.26-0.1-12.51-0.2-18.77-0.25c-1.48-0.01-2.98,0.11-4.45,0.35c-1.41,0.23-1.8,1.01-1.48,2.39
					c0.26,1.09,0.86,1.55,2.18,1.55C57.57,112.07,61.3,112.06,65.04,112.06z M64.58,96.06c0,0.01,0,0.02,0,0.03
					c-3.73,0-7.46-0.01-11.19,0c-1.37,0-2.08,0.72-2.07,1.99c0.02,1.33,0.67,2,2.06,2c7.02,0,14.04-0.02,21.07-0.06
					c0.83,0,1.67-0.14,2.5-0.29c1.04-0.18,1.42-0.86,1.38-1.9c-0.03-1.01-0.57-1.45-1.48-1.57c-0.8-0.1-1.6-0.2-2.4-0.2
					C71.17,96.05,67.87,96.06,64.58,96.06z M72.15,87.99c-5.05,0-9.97,0-14.88,0c0,1.57,0,3.06,0,4.55c4.99,0,9.92,0,14.88,0
					C72.15,90.99,72.15,89.51,72.15,87.99z M72.15,103.34c-4.84,0-9.56,0.01-14.27-0.01c-0.72,0-0.79,0.32-0.5,1.04
					c4.88,0,9.8,0,14.77,0C72.15,104.09,72.15,103.78,72.15,103.34z M69.32,115.61c-3.08,0-6.02,0-8.95,0
					c-0.07,0.1-0.14,0.21-0.21,0.31c0.46,0.42,0.89,1.17,1.38,1.21c1.89,0.16,3.8,0.12,5.7,0.1
					C68.26,117.23,68.92,116.66,69.32,115.61z"/>
			</g>
		</g>
	</g>
</g>
<g id="Layer_2" class="st0">
	<g id="_x37_g0iNX.tif_1_" class="st1">
		<g id="XMLID_674_">
			<path id="XMLID_678_" class="st2" d="M97.31,66.83c0,14.45-0.01,28.9,0.01,43.34c0,3.25-1.08,5.98-3.51,8.15
				c-1.94,1.74-4.24,2.62-6.83,2.62c-9.74,0.02-19.48,0.02-29.22,0.02c-5.08,0-10.16-0.02-15.24-0.01c-2.31,0-4.45-0.53-6.34-1.9
				c-2.93-2.12-4.42-5-4.43-8.63c0-4.25,0-8.49,0-12.74c0-24.79,0.02-49.59-0.02-74.38c-0.01-4.58,2.69-8.39,6.6-9.88
				c1.22-0.46,2.59-0.71,3.89-0.72c10.39-0.06,20.77-0.03,31.16-0.03c4.43,0,8.87,0,13.3,0c5.37,0,9.58,3.54,10.49,8.82
				c0.11,0.61,0.11,1.24,0.11,1.87c0.01,9.99,0,19.99,0,29.98C97.31,57.84,97.31,62.33,97.31,66.83z M35.69,31.9
				c0,23.32,0,46.55,0,69.82c19.26,0,38.46,0,57.7,0c0-23.29,0-46.53,0-69.82C74.14,31.9,54.94,31.9,35.69,31.9z M93.52,105.69
				c-19.42,0-38.62,0-57.86,0c0,1.55,0,3.05,0,4.54c0,4.01,2.78,6.79,6.78,6.79c8.47,0,16.94,0,25.41,0c6.39,0,12.78,0,19.17,0
				c2.85,0,5.59-1.99,6.09-4.78C93.49,110.12,93.4,107.91,93.52,105.69z M35.59,27.94c19.37,0,38.57,0,57.82,0c0-1.59,0-3.13,0-4.67
				c-0.01-3.84-2.83-6.67-6.65-6.67c-8.41,0-16.82,0-25.22,0c-6.47,0-12.95-0.01-19.42,0c-3.08,0-5.82,2.16-6.27,5.2
				C35.55,23.8,35.66,25.86,35.59,27.94z"/>
			<path id="XMLID_676_" class="st2" d="M64.54,113.29c-0.68,0-1.37,0.01-2.05,0c-1.08-0.02-1.91-0.84-1.93-1.88
				c-0.03-1.04,0.82-1.99,1.88-2.01c1.39-0.03,2.78-0.03,4.17,0c1.07,0.02,1.92,0.94,1.9,1.99c-0.02,1.03-0.86,1.87-1.92,1.9
				C65.91,113.3,65.23,113.29,64.54,113.29C64.54,113.29,64.54,113.29,64.54,113.29z"/>
			<path id="XMLID_675_" class="st2" d="M64.55,20.34c2.91,0,5.82-0.01,8.74,0.01c1.56,0.01,2.46,1.56,1.71,2.91
				c-0.36,0.65-0.96,0.98-1.69,0.98c-3.54,0.01-7.07,0-10.61,0c-2.31,0-4.62,0.01-6.93,0c-0.91,0-1.6-0.54-1.87-1.37
				c-0.26-0.81-0.02-1.7,0.71-2.14c0.38-0.23,0.89-0.37,1.34-0.37C58.82,20.32,61.69,20.34,64.55,20.34
				C64.55,20.34,64.55,20.34,64.55,20.34z"/>
		</g>
	</g>
</g>
<g id="Layer_3">
	<g id="s8aDTo.tif_1_">
		<g id="XMLID_561_">
			<path id="XMLID_658_" class="st2" d="M32.15,49.69c0.71-4.66,4.32-7.61,9.21-7.62c12.31-0.02,24.63-0.01,36.94-0.01
				c7.68,0,15.35-0.01,23.03,0c5.77,0.01,9.51,3.75,9.51,9.5c0,10.88,0.01,21.76,0,32.63c-0.01,5.44-3.91,9.31-9.34,9.31
				c-9.44,0-18.88,0-28.32,0c-0.34,0-0.67,0-1.18,0c0.36,0.43,0.56,0.68,0.77,0.92c3.75,4.27,7.51,8.53,11.25,12.81
				c0.8,0.92,0.75,2.05-0.07,2.9c-0.76,0.78-1.91,0.8-2.83,0.02c-0.32-0.27-0.59-0.61-0.87-0.93c-4.01-4.56-8.02-9.13-12.03-13.69
				c-0.27-0.31-0.55-0.61-0.86-0.94c-0.25,0.26-0.44,0.43-0.61,0.62c-2.95,3.36-5.9,6.73-8.86,10.09c-1.36,1.55-2.69,3.12-4.09,4.62
				c-1.31,1.41-3.13,0.95-3.64-0.85c-0.22-0.79,0.1-1.38,0.6-1.95c3.69-4.19,7.38-8.39,11.06-12.58c0.26-0.3,0.51-0.6,0.88-1.04
				c-0.61,0-0.97,0-1.32,0c-6.79,0-13.59,0.02-20.38-0.01c-5.06-0.02-8.92-3.91-8.97-8.95c-0.01-1,0-2,0-3.17
				c-1.84,0.99-3.53,1.9-5.22,2.81c-4.25,2.29-8.49,4.59-12.75,6.88c-1.82,0.98-3.35,0.06-3.38-2.02c0-0.1,0-0.2,0-0.29
				c0-13.98,0-27.96,0-41.94c0-2.38,1.54-3.31,3.63-2.18c4.82,2.6,9.65,5.21,14.47,7.81c1.03,0.55,2.06,1.1,3.33,1.79
				C32.11,52.56,31.93,51.1,32.15,49.69z M41.32,46.46c-3.46,0-5.34,1.86-5.34,5.32c-0.01,10.75,0,21.49,0,32.24
				c0,3.36,1.92,5.31,5.28,5.31c18.65,0,37.3,0,55.96,0c1.47,0,2.94,0.02,4.41-0.01c3.12-0.05,5.05-2,5.05-5.13
				c0.01-10.81,0.01-21.62,0-32.44c0-3.41-1.89-5.28-5.28-5.29c-10.03-0.01-20.06,0-30.09,0C61.31,46.46,51.32,46.46,41.32,46.46z
				 M14.71,85.89c0.37-0.18,0.66-0.3,0.94-0.46c5.15-2.82,10.29-5.66,15.45-8.46c0.53-0.29,0.74-0.59,0.74-1.2
				c-0.02-5.32,0-10.65-0.04-15.97c0-0.37-0.25-0.91-0.55-1.07c-5.33-2.9-10.68-5.76-16.03-8.62c-0.13-0.07-0.29-0.11-0.51-0.19
				C14.71,61.93,14.71,73.85,14.71,85.89z"/>
			<path id="XMLID_655_" class="st2" d="M69.25,26.76c0.02,7.09-5.86,12.99-12.95,13.02c-7.07,0.02-13.01-5.89-13-12.96
				c0.01-7.13,5.83-12.95,12.96-12.97C63.46,13.84,69.23,19.57,69.25,26.76z M56.13,18.03c-4.66,0.03-8.44,3.96-8.42,8.77
				c0.02,4.81,3.92,8.74,8.7,8.76c4.81,0.02,8.63-3.87,8.62-8.77C65.02,21.91,61.06,18,56.13,18.03z"/>
			<path id="XMLID_565_" class="st2" d="M101.03,26.58c0.07,7.23-5.77,13.17-12.97,13.2c-6.99,0.03-12.88-5.79-12.95-12.81
				c-0.07-7.21,5.7-13.08,12.9-13.12C95.03,13.8,100.96,19.6,101.03,26.58z M96.83,26.75c-0.05-4.84-4.01-8.74-8.85-8.72
				c-4.76,0.02-8.71,3.99-8.7,8.76c0,4.83,3.96,8.77,8.8,8.76C92.89,35.55,96.88,31.54,96.83,26.75z"/>
			<path id="XMLID_562_" class="st2" d="M70.27,55.25c-6.79,0-13.59,0-20.38,0c-1.52,0-2.29,0.63-2.37,1.87
				c-0.1,1.49,0.72,2.28,2.37,2.28c8.82,0.01,17.64,0,26.46,0c4.8,0,9.6,0,14.41-0.01c1.33,0,2.21-0.75,2.3-1.9
				c0.11-1.38-0.71-2.25-2.19-2.25c-3.95-0.01-7.9-0.01-11.86-0.01C76.09,55.25,73.18,55.25,70.27,55.25
				C70.27,55.25,70.27,55.25,70.27,55.25z"/>
		</g>
	</g>
</g>
<g id="Layer_4" class="st0">
	<g id="bNeVon.tif_1_" class="st1">
		<g id="XMLID_522_">
			<path id="XMLID_551_" class="st2" d="M118.17,38.07c0,20.48,0,40.96,0,61.44c-0.21,0.55-0.4,1.12-0.64,1.66
				c-0.92,2.02-2.64,3.02-4.65,3.64c-32.63,0-65.25,0-97.88,0c-0.55-0.21-1.12-0.4-1.66-0.64c-2.02-0.91-3.02-2.64-3.64-4.65
				c0-20.48,0-40.96,0-61.44c0.06-0.12,0.15-0.24,0.19-0.37c1.03-3.3,3.19-4.91,6.65-4.93c0.52,0,1.03,0,1.63,0
				c0-0.68-0.01-1.23,0-1.79c0.05-3.97,2.7-6.63,6.66-6.68c1.24-0.01,2.47-0.02,3.71,0c3.84,0.06,6.5,2.71,6.58,6.55
				c0.01,0.62,0,1.24,0,1.92c1.16,0,2.18-0.04,3.2,0.01c0.72,0.04,1.12-0.19,1.45-0.87c1.95-3.99,3.99-7.94,5.93-11.93
				c1.38-2.85,3.55-4.2,6.73-4.18c7.66,0.05,15.32,0.06,22.98,0c3.18-0.02,5.36,1.3,6.75,4.15c1.93,3.96,3.95,7.88,5.88,11.84
				c0.36,0.74,0.74,1.01,1.58,1c7.24-0.04,14.47-0.02,21.71-0.03c2.34,0,4.31,0.77,5.65,2.74
				C117.51,36.27,117.78,37.21,118.17,38.07z M113.93,87.86c-0.5,0-0.88,0-1.27,0c-8.54,0-17.09,0.05-25.63-0.04
				c-2.1-0.02-3.66,0.47-5.35,1.91c-10.83,9.24-26.49,8.69-36.8-1.13c-0.55-0.52-1.07-0.77-1.85-0.77
				c-9.32,0.03-18.64,0.02-27.96,0.02c-0.34,0-0.69,0-1.14,0c0,0.44,0,0.78,0,1.13c0,2.82,0,5.65,0,8.47c0,2.5,0.61,3.11,3.14,3.11
				c31.25,0,62.5,0,93.74,0c0.32,0,0.64,0.02,0.95-0.01c1.29-0.1,2.12-0.88,2.14-2.18C113.96,94.92,113.93,91.47,113.93,87.86z
				 M113.93,49.72c0-3.44,0.01-6.75,0-10.07c-0.01-1.87-0.78-2.64-2.65-2.64c-31.57,0-63.13,0-94.7,0c-1.87,0-2.64,0.77-2.65,2.65
				c-0.01,3.07,0,6.14,0,9.22c0,0.27,0.05,0.54,0.07,0.79c0.18,0.02,0.28,0.05,0.39,0.05c9.67,0,19.35,0.01,29.02-0.02
				c0.42,0,0.89-0.3,1.26-0.57c2.05-1.49,3.93-3.28,6.13-4.47c10.78-5.83,23.34-4.04,32.3,4.39c0.4,0.38,1.09,0.65,1.65,0.65
				c8.19,0.04,16.38,0.03,24.57,0.03C110.82,49.72,112.3,49.72,113.93,49.72z M113.86,83.58c0-9.92,0-19.75,0-29.54
				c-8.9,0-17.72,0-26.58,0c5.63,9.89,5.61,19.69-0.02,29.54C96.16,83.58,104.97,83.58,113.86,83.58z M40.62,83.57
				c-5.67-9.9-5.64-19.73-0.04-29.54c-8.93,0-17.77,0-26.59,0c0,9.89,0,19.69,0,29.54C22.86,83.57,31.67,83.57,40.62,83.57z
				 M40.63,68.81c0.02,12.84,10.55,23.32,23.35,23.28c12.81-0.05,23.22-10.47,23.25-23.28c0.02-12.82-10.47-23.33-23.3-23.33
				C51.1,45.49,40.61,55.99,40.63,68.81z M83.73,32.72c-0.1-0.24-0.15-0.4-0.23-0.56c-1.76-3.53-3.54-7.05-5.28-10.59
				c-0.53-1.08-1.34-1.52-2.53-1.52c-7.8,0.02-15.6,0.03-23.4-0.01c-1.34-0.01-2.16,0.54-2.74,1.72c-1.65,3.39-3.36,6.75-5.04,10.12
				c-0.12,0.24-0.21,0.5-0.35,0.83C57.35,32.72,70.46,32.72,83.73,32.72z M22.46,32.69c2.86,0,5.62,0,8.43,0c0-0.57,0-1.06,0-1.55
				c-0.02-1.8-0.79-2.59-2.56-2.61c-0.77-0.01-1.55,0-2.32,0c-3.15,0-3.67,0.53-3.58,3.7C22.42,32.37,22.44,32.51,22.46,32.69z"/>
			<path id="XMLID_533_" class="st2" d="M105.39,45.47c-0.71,0-1.42,0.05-2.12-0.01c-1.18-0.1-2.01-0.97-2.04-2.05
				c-0.02-1.11,0.84-2.07,2.07-2.13c1.44-0.07,2.9-0.07,4.34,0c1.18,0.06,2.01,0.97,2.04,2.05c0.02,1.11-0.84,2.04-2.07,2.13
				C106.88,45.52,106.13,45.47,105.39,45.47z"/>
			<path id="XMLID_530_" class="st2" d="M96.97,43.34c0.02,1.11-0.96,2.11-2.07,2.13c-1.11,0.02-2.11-0.96-2.13-2.07
				c-0.02-1.11,0.96-2.11,2.07-2.13C95.95,41.24,96.95,42.22,96.97,43.34z"/>
			<path id="XMLID_525_" class="st2" d="M83,68.74c0.04,10.47-8.53,19.08-19.02,19.11c-10.47,0.04-19.08-8.53-19.11-19.02
				c-0.04-10.47,8.53-19.08,19.02-19.11C74.36,49.69,82.96,58.25,83,68.74z M63.92,53.96c-8.15,0.01-14.82,6.69-14.82,14.84
				c0.01,8.15,6.69,14.82,14.84,14.82c8.15-0.01,14.82-6.69,14.82-14.84C78.75,60.63,72.07,53.95,63.92,53.96z"/>
			<path id="XMLID_524_" class="st2" d="M63.93,28.53c-1.98,0-3.95,0.01-5.93,0c-1.54-0.01-2.53-0.86-2.53-2.11
				c0-1.26,0.99-2.11,2.53-2.11c3.95-0.01,7.91-0.01,11.86,0c1.54,0,2.53,0.86,2.53,2.11c0,1.26-0.99,2.1-2.53,2.11
				C67.89,28.54,65.91,28.53,63.93,28.53z"/>
			<path id="XMLID_523_" class="st2" d="M53.35,68.35c0.09-5.27,4.91-10.08,10.17-10.15c1.45-0.02,2.45,0.78,2.51,2.01
				c0.06,1.17-0.82,2.05-2.22,2.22c-3.81,0.44-5.78,2.42-6.23,6.25c-0.16,1.39-1.06,2.27-2.24,2.2
				C54.11,70.8,53.33,69.81,53.35,68.35z"/>
		</g>
	</g>
</g>
<g id="Layer_5" class="st0">
	<g id="bgrXC6_2_" class="st1">
		<g id="XMLID_688_">
			<path id="XMLID_730_" class="st2" d="M26.22,69.36c-0.75,0-1.38,0-2.12,0c0,0.36,0,0.67,0,0.99c0,4.25,0.01,8.5,0,12.75
				c0,1.25-0.46,2.06-1.31,2.36c-1.51,0.54-2.75-0.47-2.76-2.27c-0.01-3.78-0.01-7.56-0.01-11.34c0-4.69,0.03-9.38,0-14.07
				c0-0.57-0.19-1.21-0.5-1.7c-1.53-2.43-3.18-4.78-4.68-7.23c-0.43-0.71-0.7-1.63-0.72-2.46c-0.08-3.43-0.04-6.86-0.02-10.29
				c0-0.49,0.06-1,0.21-1.47c0.26-0.83,1.12-1.35,1.99-1.29c0.87,0.06,1.63,0.69,1.8,1.54c0.08,0.43,0.12,0.87,0.12,1.31
				c0.01,3.2-0.02,6.39,0.02,9.59c0.01,0.52,0.19,1.09,0.45,1.54c0.72,1.21,1.54,2.35,2.29,3.54c0.29,0.47,0.62,0.68,1.2,0.67
				c1.49-0.04,2.98-0.01,4.49-0.01c0-0.7,0-1.3,0-2c-1.83,0.42-3.43,0.17-4.7-1.24c-0.8-0.9-1.16-1.97-1.04-3.16
				c0.2-2.13,1.98-4.48,5.78-3.68c0-0.83-0.03-1.64,0.01-2.44c0.04-0.87,0.35-1.6,1.23-1.95c0.78-0.31,1.61-0.27,2.1,0.37
				c0.41,0.53,0.68,1.31,0.7,1.98c0.08,2.64,0.03,5.28,0.03,7.91c0,0.28,0.03,0.56,0.14,0.86c0.58-0.71,1.26-1.3,1.24-2.36
				c-0.04-3.46-0.02-6.92-0.02-10.38c0-0.91,0.4-1.58,1.25-1.93c0.78-0.32,1.61-0.25,2.1,0.39c0.4,0.54,0.66,1.32,0.67,2
				c0.07,2.67,0.03,5.33,0.03,8c0,0.32,0,0.63,0,0.99c0.77-0.05,1.45-0.09,2.26-0.14c0.02-0.28,0.05-0.58,0.05-0.89
				c0.01-1.52-0.01-3.05,0.02-4.57c0.02-1.29,0.54-2.08,1.47-2.34c1.35-0.38,2.56,0.57,2.57,2.07c0.02,3.28,0.05,6.57-0.02,9.85
				c-0.02,1.09,0.32,1.92,1.1,2.72c0.56-0.62,1.05-1.2,1.04-2.11c-0.03-3.4-0.02-6.8-0.01-10.2c0-1.3,0.64-2.19,1.66-2.37
				c1.33-0.23,2.36,0.64,2.4,2.12c0.05,1.58,0.01,3.17,0.02,4.75c0,0.31,0.03,0.63,0.04,0.98c0.51,0,0.94,0,1.56,0
				c0-0.69-0.01-1.4,0-2.11c0.03-1.3,0.56-2.04,1.62-2.31c1.01-0.26,2.29,0.42,2.33,1.43c0.1,2.39,0.03,4.78,0.03,7.24
				c-2.66,0.23-4.59,1.53-5.58,4.05c-1.12-0.13-1.68,0.37-2.22,1.95c0.53,0.03,1.04,0.06,1.63,0.09c-0.49,2.11-0.97,4.15-1.45,6.19
				c-0.58,2.45,0.02,4.56,1.77,6.37c1.93,2.01,3.85,4.03,5.73,6.07c0.26,0.29,0.46,0.76,0.46,1.15c0.03,3.96,0.03,7.91,0.02,11.87
				c0,1.19-0.48,1.96-1.34,2.24c-1.47,0.48-2.69-0.45-2.72-2.13c-0.03-1.52-0.01-3.05-0.01-4.57c0-2.78,0-5.57,0-8.35
				c0-0.32,0-0.63,0-1.01c-0.71,0-1.34,0-2.07,0c-0.02,0.31-0.05,0.62-0.05,0.93c0,4.1,0,8.21,0,12.31c0,0.35-0.01,0.7-0.07,1.05
				c-0.2,1.25-1.03,2.01-2.1,1.92c-1.17-0.09-1.89-0.92-1.89-2.22c-0.01-3.9-0.01-7.8-0.01-11.7c0-4.66,0.03-9.32-0.01-13.98
				c-0.01-0.67-0.34-1.33-0.58-2.19c-0.77,0.81-1.09,1.4-1.09,2.24c0.06,8.35,0.08,16.7,0.1,25.06c0,0.35-0.02,0.7-0.09,1.04
				c-0.22,1.13-1.04,1.82-2.06,1.74c-1.1-0.08-1.87-0.87-1.88-2.04c-0.03-3.37-0.02-6.74-0.02-10.11c0-1.32,0-2.63,0-4.12
				c-0.61,0-1.19-0.07-1.74,0.04c-0.18,0.03-0.38,0.51-0.38,0.79c-0.03,3.58-0.02,7.15-0.03,10.73c0,0.85,0.04,1.7-0.01,2.55
				c-0.06,1.19-0.63,1.87-1.64,2.09c-0.89,0.19-1.76-0.15-2.13-0.97c-0.21-0.46-0.32-1.01-0.32-1.52
				c-0.02-5.45-0.02-10.9-0.01-16.36c0.01-2.96,0.08-5.92,0.06-8.88c0-0.57-0.22-1.2-0.5-1.71c-0.47-0.86-1.08-1.65-1.63-2.47
				c-0.08,0.01-0.17,0.02-0.25,0.04c0,0.35,0,0.69,0,1.04c0.01,8.18,0.03,16.36,0.03,24.53c0,0.52,0,1.07-0.15,1.56
				c-0.24,0.78-1.15,1.36-1.92,1.29c-0.89-0.08-1.57-0.51-1.83-1.4c-0.13-0.44-0.16-0.92-0.16-1.39c-0.01-4.13-0.01-8.27-0.01-12.4
				C26.22,70.1,26.22,69.78,26.22,69.36z M40.94,55.05c-0.42-0.65-0.75-1.1-1.01-1.58c-0.25-0.47-0.52-0.56-1.05-0.4
				c-1.56,0.46-2.95,0.04-4.13-1.05c-0.25-0.23-0.45-0.5-0.68-0.76c-1.47,1.63-1.5,1.84-0.28,3.41c0.14,0.18,0.41,0.36,0.62,0.36
				C36.51,55.06,38.62,55.05,40.94,55.05z"/>
			<path id="XMLID_729_" class="st2" d="M70.17,95.32c-2.57,0-5.03-0.01-7.48,0.01c-0.18,0-0.41,0.11-0.52,0.25
				c-1.71,2.08-3.41,4.17-5.18,6.35c1.49,1.38,2.97,2.75,4.44,4.11c0.49,0.46,1.01,0.9,1.48,1.38c1.32,1.33,1.38,3.21,0.17,4.5
				c-1.23,1.3-3.06,1.38-4.48,0.09c-2.67-2.42-5.32-4.87-7.95-7.33c-1.44-1.35-1.54-3.11-0.29-4.63c3.33-4.09,6.68-8.16,10-12.26
				c0.27-0.33,0.46-0.82,0.46-1.24c0.04-3.17,0.04-6.33,0-9.5c-0.01-0.44-0.22-0.97-0.52-1.29c-3.22-3.45-6.46-6.88-9.72-10.29
				c-0.94-0.98-1.23-2.11-0.94-3.39c0.56-2.45,1.14-4.89,1.75-7.33c0.48-1.94,2.11-2.99,3.86-2.57c1.83,0.45,2.75,2.1,2.27,4.08
				c-0.42,1.73-0.85,3.47-1.22,5.21c-0.07,0.33,0.03,0.83,0.25,1.07c1.49,1.65,3.03,3.27,4.58,4.86c0.23,0.24,0.66,0.4,1,0.4
				c3.84,0.03,7.68,0.03,11.52,0c0.31,0,0.74-0.22,0.92-0.48c1.53-2.25,3.03-4.53,4.49-6.82c0.19-0.29,0.22-0.72,0.22-1.08
				c0.01-6.89,0-13.78,0.02-20.67c0-1.64,0.88-2.79,2.36-3.18c1.77-0.47,3.57,0.7,3.84,2.52c0.07,0.46,0.11,0.93,0.11,1.4
				c0.01,6.92,0,13.84,0.01,20.75c0,1.27-0.33,2.38-1.05,3.45c-2.63,3.91-5.22,7.86-7.78,11.81c-0.25,0.38-0.33,0.93-0.33,1.4
				c0.01,13.31,0.04,26.61,0.06,39.92c0,1.79-0.74,2.96-2.18,3.44c-1.73,0.58-3.6-0.42-4.02-2.21c-0.11-0.48-0.13-0.99-0.13-1.48
				c-0.01-6.68-0.01-13.37-0.01-20.05C70.17,96.17,70.17,95.82,70.17,95.32z"/>
			<path id="XMLID_725_" class="st2" d="M108.24,70.88c-0.48,0-0.89,0.03-1.29-0.01c-0.65-0.07-0.87,0.18-0.86,0.84
				c0.03,2.73,0.02,5.45,0.02,8.18c0,1.79,0.02,3.58-0.04,5.36c-0.04,1.28-1.1,2.07-2.36,1.83c-0.83-0.16-1.37-0.65-1.54-1.48
				c-0.08-0.43-0.12-0.87-0.13-1.31c-0.01-5.19-0.01-10.38,0-15.56c0.01-3.02,0.06-6.03,0.09-9.05c0-0.3,0-0.61-0.14-0.95
				c-0.88,1.5-2.33,2.57-2.31,4.62c0.1,8.29,0.05,16.59,0.06,24.89c0,1.01-0.23,1.86-1.25,2.3c-1.12,0.48-2.39-0.14-2.67-1.34
				c-0.1-0.42-0.15-0.87-0.15-1.3c-0.01-4.19-0.02-8.38,0.01-12.57c0.01-0.74-0.22-0.99-0.95-0.92c-0.62,0.06-1.24-0.15-1.22,0.93
				c0.07,4.28,0.02,8.56,0.03,12.84c0,0.96-0.19,1.82-1.13,2.3c-1.39,0.7-2.9-0.26-2.92-1.9c-0.03-3.17-0.02-6.33-0.02-9.5
				c0-5.48,0.01-10.96,0-16.44c0-0.39-0.06-0.89-0.3-1.14c-0.62-0.65-0.61-1.4-0.6-2.19c0.02-1.38,0.05-2.76-0.01-4.13
				c-0.05-1.11,0.07-2.11,0.83-3.01c0.25-0.29,0.3-0.81,0.3-1.23c0.03-3.37,0-6.74,0.03-10.11c0.01-1.62,1.01-2.55,2.38-2.33
				c0.86,0.14,1.55,0.74,1.6,1.61c0.09,1.69,0.08,3.39,0.11,5.09c0.01,0.35,0,0.69,0,1.06c0.8,0.09,1.51,0.17,2.35,0.26
				c0-0.34,0-0.65,0-0.96c0-2.81-0.02-5.63,0-8.44c0.01-1.54,1.09-2.41,2.53-2.11c0.91,0.19,1.51,1.02,1.52,2.19
				c0.02,3.37,0.04,6.74-0.01,10.11c-0.02,1.09,0.59,1.76,1.14,2.51c0.08-0.01,0.16-0.03,0.25-0.04c0-0.3,0-0.6,0-0.9
				c0-2.73-0.02-5.45,0-8.18c0.01-1.59,1.15-2.51,2.58-2.15c0.87,0.22,1.44,1.03,1.49,2.15c0.03,0.73,0.01,1.46,0.01,2.3
				c1.81-0.43,3.42-0.16,4.68,1.22c0.77,0.83,1.14,1.86,1.09,2.98c-0.14,2.84-2.18,4.25-5.73,3.96c-0.03,0.6-0.07,1.2-0.11,1.94
				c1.71,0,3.4,0.02,5.08-0.02c0.19,0,0.42-0.28,0.56-0.49c0.89-1.31,1.77-2.62,2.61-3.96c0.2-0.32,0.28-0.76,0.28-1.15
				c0.02-3.17,0.01-6.33,0.02-9.5c0-0.47,0.04-0.94,0.12-1.39c0.21-1.13,0.99-1.72,2.11-1.63c1.02,0.08,1.74,0.83,1.81,1.91
				c0.03,0.44,0.01,0.88,0.01,1.32c0,3.4,0.04,6.8-0.02,10.2c-0.01,0.68-0.26,1.45-0.62,2.03c-1.53,2.43-3.17,4.79-4.71,7.21
				c-0.31,0.48-0.49,1.13-0.49,1.7c-0.02,8.41,0,16.82,0.01,25.24c0,0.94-0.14,1.82-1.07,2.34c-1.25,0.69-2.71-0.01-2.95-1.42
				c-0.06-0.37-0.07-0.76-0.07-1.14c0-4.1,0-8.21,0-12.31C108.29,71.66,108.26,71.32,108.24,70.88z M98.35,52.75
				c-1.39,1.75-3.03,2.47-5.15,1.83c-0.15-0.04-0.42,0.04-0.51,0.16c-0.41,0.55-0.78,1.13-1.21,1.78c0.24,0.05,0.35,0.09,0.45,0.09
				c1.99,0,3.98,0.01,5.96-0.02c0.24,0,0.56-0.17,0.71-0.36c1.14-1.38,1.14-1.53,0.13-2.98C98.63,53.11,98.52,52.98,98.35,52.75z"/>
			<path id="XMLID_724_" class="st2" d="M68.01,49.39c3.94-0.02,7.24,3.29,7.27,7.29c0.03,3.96-3.25,7.32-7.2,7.35
				c-4.08,0.04-7.42-3.24-7.43-7.28C60.64,52.68,63.91,49.41,68.01,49.39z"/>
			<path id="XMLID_723_" class="st2" d="M83.89,74.46c-0.74,0-1.37,0-2.12,0c0,0.37,0,0.71,0,1.05c0,4.22,0.01,8.44,0,12.66
				c0,1.62-0.7,2.4-2.3,2.51c0-0.44,0-0.87,0-1.3c0-3.93,0-7.85,0.02-11.78c0-0.36,0.04-0.79,0.23-1.08
				c2.65-4.07,5.33-8.12,8.1-12.31c0.05,0.32,0.1,0.5,0.1,0.67c0.01,7.73,0.02,15.47,0.02,23.2c0,0.2,0.01,0.41-0.02,0.61
				c-0.16,1.25-1.07,2.1-2.13,2.01c-1.13-0.09-1.89-0.97-1.89-2.25c-0.01-4.31,0-8.61,0-12.92C83.89,75.19,83.89,74.85,83.89,74.46z
				"/>
			<path id="XMLID_722_" class="st2" d="M59.29,51.03c-0.86-0.53-1.64-0.97-2.38-1.48c-0.2-0.14-0.36-0.46-0.36-0.7
				c-0.02-3.25-0.04-6.5-0.01-9.75c0.01-1.26,0.72-2.05,1.73-2.18c1.32-0.16,2.25,0.68,2.3,2.13c0.04,1.02,0.01,2.04,0.01,3.01
				c0.68-0.07,1.25-0.22,1.81-0.16c0.88,0.09,1.52,0.91,1.59,1.94c0.06,0.93,0.04,1.87,0.01,2.81c-0.01,0.22-0.15,0.55-0.33,0.63
				C61.85,48.13,60.44,49.46,59.29,51.03z"/>
			<path id="XMLID_721_" class="st2" d="M75.76,49.91c-2.04-2.18-4.41-3.31-7.27-3.54c0-1.57-0.12-3.14,0.04-4.68
				c0.12-1.09,1.38-1.64,2.46-1.32c0.22,0.07,0.43,0.14,0.68,0.23c0.08-0.27,0.16-0.52,0.23-0.77c0.27-0.86,1.02-1.41,1.9-1.41
				c0.9,0.01,1.63,0.54,1.88,1.42c0.08,0.28,0.14,0.57,0.14,0.86c0.01,2.9,0.01,5.79,0.01,8.69C75.84,49.51,75.81,49.62,75.76,49.91
				z"/>
			<path id="XMLID_720_" class="st2" d="M77.88,27.1c0.14-1.76,0.91-3.07,2.12-4.2c1.09-1.01,2.19-2.03,3.18-3.14
				c0.98-1.1,1-2.09,0.21-3.17c-0.46-0.63-0.56-1.21,0.05-1.79c0.59-0.55,1.48-0.6,2.07-0.06c1.31,1.2,1.45,2.72,1.11,4.36
				c-0.26,1.25-0.91,2.26-1.85,3.11c-0.93,0.85-1.89,1.67-2.75,2.58c-0.96,1.01-1.51,2.15-0.77,3.57c0.34,0.65,0.26,1.26-0.45,1.65
				c-0.76,0.42-1.7,0.28-2.08-0.47C78.33,28.78,78.15,27.91,77.88,27.1z"/>
			<path id="XMLID_719_" class="st2" d="M64.07,26.74c-1.9-0.03-3.9-1.56-4.47-3.52c-0.41-1.4-0.67-2.84-1.06-4.25
				c-0.17-0.61-0.46-1.19-0.76-1.76c-0.43-0.8-1.11-1.13-2.04-1.06c-1.18,0.09-1.64-0.22-1.76-1.08c-0.12-0.84,0.38-1.5,1.36-1.75
				c1.72-0.43,3,0.41,4.17,1.49c1.32,1.21,1.53,2.89,1.9,4.52c0.25,1.1,0.61,2.19,1.04,3.24c0.33,0.81,1.03,1.24,1.92,1.33
				c1.17,0.13,1.52,0.49,1.45,1.42C65.76,26.24,65.13,26.76,64.07,26.74z"/>
			<path id="XMLID_718_" class="st2" d="M52.85,27.25c0.1,1.13,0.15,2.27,0.32,3.39c0.14,0.94,0.76,1.54,1.66,1.87
				c0.98,0.37,1.28,0.85,1.06,1.6c-0.25,0.85-0.99,1.27-1.92,1.09c-1.83-0.36-3.56-2.32-3.68-4.33c-0.08-1.4,0.01-2.81-0.02-4.21
				c-0.01-0.61-0.07-1.23-0.2-1.83c-0.24-1.13-0.86-1.9-2.12-1.98c-0.75-0.04-1.19-0.42-1.2-1.22c-0.01-0.8,0.47-1.45,1.25-1.55
				c1.24-0.16,2.3,0.29,3.18,1.15c1.39,1.36,1.93,3.03,1.81,4.94c-0.02,0.35-0.03,0.7-0.05,1.05
				C52.93,27.24,52.89,27.25,52.85,27.25z"/>
			<path id="XMLID_700_" class="st2" d="M29.72,31.87c-1.07,0-1.7-0.96-1.05-1.98c0.83-1.29,0.59-2.46-0.23-3.58
				c-0.69-0.94-1.43-1.86-2.22-2.72c-1.38-1.48-1.85-3.22-1.6-5.18c0.13-1.07,0.66-1.94,1.52-2.57c0.73-0.54,1.55-0.41,2.12,0.26
				c0.47,0.56,0.4,1.18-0.22,1.87c-0.92,1.01-1.03,1.77-0.16,3.09c0.86,1.29,1.88,2.46,2.85,3.67c1.4,1.75,1.78,3.66,0.89,5.75
				C31.3,31.21,30.86,31.9,29.72,31.87z"/>
			<path id="XMLID_699_" class="st2" d="M103.63,25.75c-0.17-1.42-0.35-2.84-0.51-4.26c-0.26-2.35,1.49-4.97,3.63-5.46
				c1.09-0.25,1.89,0.13,2.19,1.06c0.22,0.68-0.08,1.3-0.75,1.55c-1.99,0.74-2.52,1.64-2.27,3.86c0.14,1.22,0.31,2.43,0.46,3.65
				c0.27,2.14-1.03,4.49-2.94,5.33c-0.87,0.38-1.66,0.22-2.12-0.44c-0.47-0.68-0.35-1.52,0.39-1.86
				C103.21,28.48,103.69,27.29,103.63,25.75z"/>
			<path id="XMLID_698_" class="st2" d="M56.31,87.92c0-4.06,0-7.93,0-11.95c0.94,0.85,1.67,1.55,1.57,2.9
				c-0.14,1.92-0.14,3.87,0,5.78C57.99,86.07,57.26,86.92,56.31,87.92z"/>
			<path id="XMLID_697_" class="st2" d="M68.73,28.93c0.01-1.15,0.78-1.96,1.88-1.98c1.12-0.02,1.95,0.84,1.95,2.02
				c0,1.14-0.79,1.97-1.89,1.98C69.53,30.96,68.72,30.11,68.73,28.93z"/>
			<path id="XMLID_696_" class="st2" d="M118.83,27.16c0.03,1.07-0.82,1.98-1.89,2.03c-1.09,0.05-2-0.84-2.02-1.98
				c-0.03-1.06,0.82-1.98,1.88-2.04C117.85,25.1,118.81,26.04,118.83,27.16z"/>
			<path id="XMLID_695_" class="st2" d="M17.2,23.68c0-1.21,0.78-2.04,1.92-2.05c1.07,0,1.9,0.84,1.93,1.98
				c0.03,1.14-0.82,2.04-1.94,2.04C18.01,25.65,17.2,24.82,17.2,23.68z"/>
			<path id="XMLID_691_" class="st2" d="M36.92,29.55c0-1.18,0.8-2.01,1.95-1.99c1.09,0.01,1.9,0.85,1.91,1.97
				c0.01,1.14-0.87,2.02-1.98,2C37.69,31.51,36.93,30.7,36.92,29.55z"/>
			<path id="XMLID_690_" class="st2" d="M91.42,22.76c0-1.18,0.84-2.05,1.94-2.01c1.09,0.04,1.87,0.88,1.87,2.01
				c0,1.17-0.75,1.97-1.87,2C92.21,24.79,91.42,23.97,91.42,22.76z"/>
			<path id="XMLID_689_" class="st2" d="M76.38,18.38c-0.01,1.15-0.79,1.97-1.89,1.97c-1.14,0.01-1.93-0.84-1.92-2.03
				c0.01-1.14,0.8-1.97,1.9-1.98C75.57,16.33,76.39,17.19,76.38,18.38z"/>
		</g>
	</g>
</g>
</svg>
