<?xml version="1.0" encoding="utf-8"?>
<!-- Generator: Adobe Illustrator 16.0.0, SVG Export Plug-In . SVG Version: 6.00 Build 0)  -->
<!DOCTYPE svg PUBLIC "-//W3C//DTD SVG 1.1//EN" "http://www.w3.org/Graphics/SVG/1.1/DTD/svg11.dtd">
<svg version="1.1" id="Layer_1" xmlns="http://www.w3.org/2000/svg" xmlns:xlink="http://www.w3.org/1999/xlink" x="0px" y="0px"
	 width="1217px" height="1080px" viewBox="0 0 1217 1080" enable-background="new 0 0 1217 1080" xml:space="preserve">
<g>
	<defs>
		<rect id="SVGID_1_" width="1217" height="1080"/>
	</defs>
	<clipPath id="SVGID_2_">
		<use xlink:href="#SVGID_1_"  overflow="visible"/>
	</clipPath>
	<path clip-path="url(#SVGID_2_)" fill="#EB008B" d="M1188.908,702.922c-1.332,0.23-2.231,1.417-2.156,2.736l-103.04,9.591
		c-0.074-0.467-0.413-0.858-0.891-0.992c-0.128-0.043-0.273-0.043-0.407-0.036l-2.446-13.938c0.574-0.135,1.062-0.574,1.233-1.197
		c0.253-0.906-0.278-1.845-1.185-2.086c-0.097-0.032-0.188-0.043-0.279-0.06l2.489-53.96l39.251-22.375
		c0.269,0.44,0.687,0.772,1.207,0.918c1.126,0.311,2.285-0.344,2.597-1.471c0.312-1.126-0.344-2.279-1.465-2.591
		c-0.199-0.054-0.381-0.075-0.568-0.08l-2.227-46.284c0.682-0.064,1.277-0.542,1.469-1.233c0.254-0.912-0.277-1.846-1.179-2.098
		c-0.15-0.048-0.301-0.06-0.446-0.06l-1.796-37.309c1.062-0.094,2.017-0.821,2.317-1.912c0.387-1.398-0.44-2.846-1.84-3.238
		c-1.406-0.386-2.85,0.432-3.235,1.835c-0.354,1.284,0.312,2.604,1.508,3.114l-34.016,88.756c-0.032-0.016-0.059-0.037-0.092-0.043
		c-0.886-0.252-1.797,0.118-2.29,0.837l-43.736-27.492c0.065-0.118,0.118-0.236,0.151-0.365c0.257-0.912-0.274-1.845-1.186-2.098
		c-0.156-0.048-0.317-0.054-0.473-0.054l-3.567-51.173c0.349-0.034,0.697-0.144,1.02-0.324c1.26-0.714,1.706-2.323,0.992-3.589
		c-0.719-1.261-2.328-1.709-3.59-0.995c-1.163,0.663-1.619,2.067-1.136,3.27l-86.807,38.719c-0.011-0.037-0.022-0.069-0.043-0.107
		c-0.451-0.799-1.347-1.18-2.205-1.029l-11.49-50.363c0.129-0.029,0.252-0.081,0.37-0.146c0.815-0.469,1.105-1.51,0.643-2.326
		c-0.466-0.818-1.507-1.1-2.327-0.638c-0.815,0.461-1.1,1.499-0.644,2.32c0.226,0.395,0.585,0.66,0.981,0.781l-15.465,61.797
		c-0.478-0.097-0.998-0.032-1.448,0.22c-1.02,0.58-1.374,1.867-0.8,2.887c0.145,0.24,0.327,0.455,0.547,0.627l-26.58,37.873
		c-0.504-0.316-1.164-0.365-1.728-0.043c-0.815,0.461-1.105,1.496-0.644,2.328c0.118,0.188,0.263,0.364,0.434,0.499l-8.115,11.576
		c-0.364-0.236-0.848-0.263-1.261-0.038c-0.23,0.135-0.397,0.322-0.505,0.537l-12.595-4.93l-1.744-9.737
		c0.499-0.106,0.939-0.391,1.256-0.831c0.676-0.96,0.445-2.27-0.515-2.939c-0.955-0.676-2.264-0.445-2.94,0.51
		c-0.166,0.241-0.268,0.493-0.326,0.772l-33.051-5.579l-11.963-21.211c0.118-0.075,0.236-0.178,0.322-0.312
		c0.391-0.563,0.257-1.335-0.306-1.732c-0.563-0.386-1.337-0.241-1.717,0.306c-0.396,0.563-0.269,1.33,0.295,1.733
		c0.161,0.106,0.332,0.171,0.515,0.203l-1.352,16.989c-0.553-0.011-1.104,0.235-1.448,0.724c-0.135,0.188-0.221,0.402-0.269,0.612
		l-13.941-2.35c0.048-0.435-0.129-0.88-0.516-1.148c-0.563-0.397-1.33-0.258-1.722,0.306c-0.097,0.135-0.161,0.284-0.198,0.43
		l-11.11-1.871l-14.387-18.868c0.08-0.069,0.177-0.134,0.258-0.225c0.986-1.073,0.928-2.726-0.13-3.723
		c-1.066-0.982-2.734-0.929-3.728,0.134c-0.987,1.057-0.934,2.729,0.14,3.717c0.182,0.172,0.386,0.307,0.602,0.413l-5.838,12.671
		c-0.799-0.316-1.716-0.123-2.316,0.51l-27.117-23.485c0.048-0.064,0.107-0.112,0.15-0.177c0.976-1.405,0.638-3.348-0.778-4.334
		c-1.405-0.987-3.348-0.645-4.329,0.761c-0.605,0.858-0.708,1.91-0.381,2.827l-15.583,6.051c-0.097-0.198-0.226-0.375-0.408-0.504
		c-0.569-0.393-1.336-0.252-1.722,0.306c-0.236,0.327-0.279,0.729-0.166,1.078l-10.541,4.094c-0.108-0.22-0.258-0.419-0.478-0.579
		c-0.644-0.451-1.54-0.301-1.99,0.354c-0.264,0.37-0.317,0.842-0.183,1.25l-22.965,8.926c-0.161-0.343-0.386-0.654-0.708-0.885
		c-0.961-0.665-2.28-0.435-2.945,0.521c-0.183,0.263-0.295,0.558-0.349,0.853l-21.318-2.692l15.814-36.757
		c0.488,0.184,1.014,0.192,1.519,0.005c1.089-0.435,1.619-1.657,1.19-2.751c-0.429-1.084-1.663-1.604-2.736-1.181
		c-1.083,0.424-1.62,1.657-1.195,2.741c0.074,0.177,0.166,0.321,0.273,0.472l-27.493,22.348c-0.633-0.777-1.668-1.143-2.671-0.9
		l-26.313-91.326c0.033-0.013,0.075-0.013,0.108-0.027c0.853-0.335,1.351-1.169,1.33-2.041l51.466-4.399
		c0.017,0.124,0.049,0.25,0.098,0.384c0.338,0.869,1.335,1.296,2.21,0.955c0.869-0.349,1.303-1.333,0.966-2.208
		c-0.35-0.876-1.342-1.305-2.211-0.962c-0.574,0.225-0.955,0.718-1.063,1.274l-62.265-7.832l-3.621-5.292l4.244-9.89
		c0.472,0.18,1.019,0.191,1.518-0.005c1.084-0.432,1.609-1.649,1.186-2.742c-0.435-1.083-1.647-1.611-2.736-1.185
		c-0.268,0.102-0.505,0.264-0.698,0.454l-33.827-31.567c0.38-0.459,0.52-1.111,0.279-1.704c-0.349-0.876-1.336-1.306-2.216-0.962
		c-0.215,0.088-0.397,0.212-0.558,0.367l-10.342-9.648c0.284-0.332,0.38-0.804,0.209-1.25c-0.252-0.632-0.965-0.941-1.609-0.689
		c-0.151,0.059-0.279,0.148-0.403,0.255l-11.951-11.16l30.024-1.146c0.037,0.502,0.252,0.992,0.654,1.365
		c0.848,0.797,2.189,0.749,2.977-0.099c0.794-0.861,0.746-2.194-0.101-2.988c-0.21-0.201-0.462-0.34-0.714-0.434l13.937-44.117
		c0.584,0.148,1.239-0.005,1.679-0.483c0.515-0.544,0.579-1.344,0.241-1.971l-0.096-0.169c-0.076-0.094-0.145-0.188-0.231-0.266
		c-0.166-0.15-0.359-0.271-0.569-0.349l-0.188-0.05c-0.584-0.14-1.222,0.019-1.652,0.488c-0.509,0.539-0.585,1.311-0.262,1.933
		l-39.761,23.437l-28.7-25.668c0.708-0.845,0.955-2.036,0.51-3.135c-0.622-1.602-2.441-2.382-4.034-1.755
		c-0.971,0.384-1.631,1.207-1.867,2.149l-16.34-3.538c0.032-0.209,0.011-0.427-0.069-0.638c-0.248-0.636-0.972-0.953-1.604-0.692
		c-0.376,0.142-0.634,0.45-0.725,0.807l-11.056-2.395c0.032-0.244,0.017-0.502-0.086-0.743c-0.279-0.738-1.11-1.092-1.845-0.802
		c-0.44,0.166-0.735,0.528-0.847,0.941l-24.087-5.208c0.065-0.368,0.043-0.751-0.106-1.124c-0.43-1.084-1.659-1.613-2.737-1.186
		c-1.078,0.427-1.62,1.65-1.191,2.738c0.172,0.414,0.446,0.747,0.795,0.972l-28.748,47.751c-0.386-0.204-0.784-0.328-1.202-0.381
		l1.239-16.665c0.21,0.003,0.435-0.048,0.623-0.158c0.605-0.338,0.805-1.089,0.461-1.687c-0.193-0.352-0.531-0.564-0.89-0.611
		l0.836-11.277c0.247,0.006,0.499-0.048,0.719-0.182c0.692-0.381,0.933-1.252,0.553-1.942c-0.231-0.405-0.639-0.649-1.068-0.705
		l1.835-24.575c0.37,0.014,0.751-0.066,1.094-0.265c1.014-0.569,1.373-1.861,0.794-2.873c-0.563-1.016-1.856-1.376-2.875-0.799
		c-0.944,0.54-1.309,1.709-0.875,2.688L312.532,379.6c-0.118-0.207-0.276-0.392-0.48-0.534c-0.62-0.432-1.432-0.389-2.003,0.051
		l-48.489-54.47c0.526-0.496,0.847-1.21,0.821-1.985c-0.052-1.459-1.28-2.588-2.725-2.537c-0.253,0.005-0.486,0.061-0.722,0.139
		l-4.836-13.091c0.797-0.333,1.309-1.127,1.279-1.988l35.791-2.572c0.006,0.067-0.007,0.145,0.014,0.22
		c0.298,1.698,1.923,2.829,3.607,2.526c1.701-0.297,2.83-1.914,2.53-3.61c-0.18-1.024-0.853-1.842-1.725-2.258l6.738-15.297
		c0.199,0.078,0.41,0.1,0.646,0.059c0.665-0.12,1.116-0.764,1.004-1.435c-0.073-0.397-0.322-0.71-0.65-0.877l4.557-10.347
		c0.231,0.083,0.489,0.117,0.746,0.074c0.778-0.142,1.296-0.876,1.162-1.654c-0.089-0.454-0.379-0.821-0.765-1.02l9.943-22.546
		c0.344,0.137,0.724,0.185,1.118,0.112c0.537-0.093,0.979-0.378,1.28-0.766l30.966,22.251c-0.067,0.099-0.129,0.198-0.169,0.311
		c-0.464,1.065,0.027,2.309,1.089,2.771c1.078,0.464,2.319-0.027,2.781-1.103c0.073-0.177,0.113-0.359,0.145-0.541l46.149,4.208
		c-0.032,0.687,0.36,1.336,1.02,1.628c0.858,0.373,1.862-0.024,2.237-0.883c0.069-0.144,0.096-0.295,0.112-0.434l37.213,3.39
		c-0.075,1.068,0.526,2.108,1.572,2.562c1.325,0.571,2.875-0.038,3.46-1.368c0.569-1.333-0.038-2.889-1.363-3.466
		c-1.233-0.53-2.628-0.053-3.304,1.065l-83.18-45.983c0.019-0.03,0.037-0.057,0.048-0.088c0.368-0.845,0.132-1.792-0.504-2.382
		l33.281-39.512c0.096,0.078,0.214,0.151,0.337,0.207c0.864,0.373,1.867-0.024,2.237-0.891c0.376-0.863-0.021-1.861-0.879-2.234
		c-0.864-0.378-1.867,0.019-2.243,0.882c-0.177,0.413-0.177,0.859-0.037,1.253l-58.646,24.886c-0.215-0.446-0.566-0.821-1.052-1.031
		c-1.07-0.464-2.312,0.03-2.776,1.095c-0.112,0.268-0.169,0.544-0.166,0.82l-46.247,1.607c-0.048-0.604-0.415-1.161-1.007-1.419
		c-0.862-0.375-1.871,0.022-2.235,0.888c-0.099,0.212-0.147,0.429-0.145,0.646l-14.132,0.497c-0.038-0.433-0.303-0.837-0.73-1.028
		c-0.635-0.273-1.357,0.022-1.633,0.644c-0.073,0.156-0.097,0.314-0.102,0.472l-16.343,0.566l20.417-22.045
		c0.383,0.331,0.888,0.529,1.426,0.51c1.167-0.049,2.077-1.027,2.034-2.186c-0.046-1.161-1.019-2.076-2.176-2.036
		c-0.016,0-0.034,0.002-0.047,0.005l-9.56-97.876c0.684-0.117,1.207-0.729,1.183-1.453c-0.021-0.789-0.689-1.403-1.476-1.371
		c-0.463,0.013-0.871,0.255-1.109,0.604l-34.639-20.79l0.475-7.033c0.075,0.009,0.143,0.022,0.22,0.019
		c1.725-0.061,3.068-1.501,3.001-3.227c-0.061-1.719-1.504-3.063-3.221-3.001c-1.043,0.038-1.947,0.593-2.48,1.395l-14.213-8.797
		c0.098-0.185,0.15-0.398,0.138-0.623c-0.013-0.684-0.587-1.212-1.279-1.191c-0.392,0.01-0.74,0.217-0.955,0.52l-9.612-5.949
		c0.12-0.217,0.185-0.469,0.176-0.727c-0.029-0.791-0.686-1.408-1.48-1.376c-0.461,0.017-0.869,0.261-1.116,0.609l-20.948-12.968
		c0.18-0.322,0.285-0.698,0.271-1.1c-0.045-1.155-1.024-2.073-2.186-2.024c-1.167,0.037-2.076,1.016-2.03,2.18
		c0.037,1.164,1.019,2.073,2.183,2.03c0.373-0.01,0.724-0.131,1.03-0.319l48.569,70.757c-0.52,0.399-0.859,1.038-0.829,1.751
		c0.027,0.891,0.607,1.639,1.403,1.91l-27.28,91.446c-1.473-0.389-3.034,0.327-3.654,1.763c-0.41,0.957-0.311,2.008,0.191,2.837
		l-14.046,9.047c-0.132-0.161-0.298-0.306-0.51-0.402c-0.62-0.274-1.349,0.021-1.623,0.652c-0.164,0.362-0.129,0.767,0.051,1.091
		l-9.498,6.118c-0.15-0.204-0.338-0.367-0.582-0.475c-0.732-0.308-1.574,0.017-1.88,0.746c-0.188,0.427-0.134,0.888,0.067,1.266
		l-20.717,13.344c-0.215-0.308-0.502-0.563-0.861-0.719c-1.078-0.467-2.318,0.032-2.779,1.097c-0.469,1.07,0.019,2.31,1.089,2.774
		c1.076,0.463,2.312-0.027,2.771-1.092c0.155-0.351,0.201-0.719,0.155-1.068l50.372-7.982l-1.902,88.944
		c-0.024,0.006-0.064,0.003-0.091,0.008c-0.925,0.167-1.545,1.047-1.376,1.977c0.161,0.926,1.044,1.546,1.971,1.382
		c0.258-0.046,0.472-0.154,0.671-0.285l17.445,20.447c-0.389,0.386-0.585,0.941-0.483,1.517c0.016,0.092,0.043,0.18,0.075,0.275
		l-49.081,21.449l-11.842-8.248l6.582-56.999c1.473,0.123,2.862-0.805,3.267-2.272c0.459-1.66-0.512-3.377-2.178-3.83
		c-1.008-0.282-2.025-0.03-2.784,0.582L140.928,275c0.151-0.151,0.269-0.333,0.33-0.547c0.186-0.665-0.201-1.336-0.866-1.524
		c-0.381-0.11-0.77-0.016-1.068,0.204l-7.386-8.556c0.188-0.18,0.327-0.395,0.395-0.649c0.212-0.759-0.229-1.548-0.987-1.757
		c-0.456-0.121-0.909-0.019-1.252,0.244l-16.083-18.663c0.266-0.26,0.483-0.579,0.587-0.968c0.314-1.127-0.346-2.288-1.475-2.596
		c-1.126-0.306-2.279,0.346-2.593,1.469c-0.314,1.124,0.349,2.286,1.475,2.597c0.203,0.059,0.415,0.075,0.614,0.07l6.36,84.596
		c-0.038,0.006-0.078-0.006-0.113,0.006c-1.148,0.209-1.916,1.297-1.714,2.445c0.032,0.193,0.099,0.378,0.182,0.542l-40.831,21.908
		c-0.362-0.579-1.037-0.917-1.751-0.788c-0.926,0.164-1.551,1.043-1.385,1.974c0.027,0.148,0.081,0.284,0.143,0.418l-32.916,17.668
		c-0.536-0.923-1.602-1.462-2.714-1.269c-1.438,0.252-2.388,1.62-2.136,3.053c0.247,1.429,1.613,2.384,3.05,2.135
		c1.328-0.236,2.224-1.427,2.152-2.736l103.036-9.586c0.083,0.458,0.41,0.85,0.89,0.981c0.142,0.038,0.285,0.054,0.416,0.04
		l2.446,13.938c-0.579,0.142-1.057,0.579-1.234,1.197c-0.246,0.9,0.28,1.842,1.183,2.094c0.094,0.016,0.196,0.038,0.285,0.051
		l-2.503,53.955l-39.235,22.372c-0.282-0.431-0.695-0.762-1.215-0.907c-1.127-0.302-2.285,0.344-2.596,1.476
		c-0.311,1.116,0.348,2.288,1.472,2.591c0.185,0.051,0.375,0.073,0.563,0.075l0.196-0.016c0.845-0.075,1.596-0.668,1.835-1.534
		c0.048-0.175,0.062-0.354,0.069-0.536l35.904-1.304c0.062,0.761,0.534,1.435,1.253,1.754l0.182,0.067
		c0.033,0.01,0.062,0.021,0.097,0.037c0.882,0.25,1.789-0.12,2.291-0.831l43.732,27.49c-0.061,0.112-0.112,0.228-0.158,0.362
		c-0.246,0.909,0.29,1.837,1.194,2.103c0.161,0.032,0.322,0.051,0.469,0.054l3.567,51.165c-0.345,0.04-0.689,0.142-1.019,0.33
		c-1.258,0.716-1.703,2.322-0.984,3.58c0.711,1.261,2.32,1.722,3.583,0.995c1.162-0.649,1.623-2.063,1.135-3.259l86.803-38.714
		c0.014,0.027,0.033,0.07,0.049,0.089c0.451,0.809,1.352,1.193,2.21,1.034l11.485,50.37c-0.118,0.026-0.244,0.08-0.37,0.145
		c-0.812,0.467-1.102,1.508-0.644,2.334c0.465,0.814,1.505,1.089,2.326,0.633c0.815-0.467,1.116-1.502,0.643-2.323
		c-0.222-0.392-0.574-0.66-0.973-0.783l15.457-61.795c0.48,0.094,0.99,0.037,1.459-0.233c1.009-0.569,1.366-1.857,0.789-2.87
		c-0.145-0.253-0.327-0.462-0.544-0.626l26.572-37.875c0.518,0.317,1.175,0.365,1.73,0.043c0.828-0.469,1.116-1.502,0.646-2.325
		c-0.107-0.206-0.26-0.365-0.434-0.499l8.119-11.579c0.37,0.233,0.85,0.257,1.261,0.024c0.225-0.118,0.394-0.314,0.506-0.528
		l12.599,4.943l1.743,9.723c-0.499,0.105-0.954,0.4-1.266,0.837c-0.66,0.955-0.44,2.274,0.523,2.945
		c0.953,0.665,2.272,0.432,2.932-0.524c0.169-0.24,0.273-0.495,0.338-0.763l33.044,5.57l11.968,21.214
		c-0.123,0.078-0.241,0.185-0.322,0.308c-0.397,0.564-0.263,1.331,0.301,1.733c0.557,0.392,1.33,0.255,1.721-0.319
		c0.403-0.553,0.264-1.32-0.305-1.717c-0.155-0.115-0.333-0.172-0.51-0.201l1.352-16.997c0.558,0.019,1.111-0.236,1.454-0.719
		c0.134-0.201,0.22-0.402,0.263-0.612l13.942,2.35c-0.049,0.432,0.128,0.88,0.514,1.151c0.564,0.389,1.331,0.257,1.734-0.309
		c0.091-0.137,0.15-0.281,0.182-0.432l11.109,1.873l14.398,18.874c-0.085,0.07-0.177,0.137-0.268,0.225
		c-0.976,1.068-0.923,2.731,0.14,3.716c1.062,0.987,2.73,0.941,3.722-0.127c0.999-1.064,0.934-2.729-0.139-3.714
		c-0.172-0.183-0.381-0.312-0.6-0.419l5.841-12.673c0.789,0.321,1.711,0.12,2.312-0.51l27.112,23.488
		c-0.043,0.056-0.091,0.105-0.145,0.172c-0.976,1.405-0.638,3.35,0.772,4.337c1.411,0.987,3.353,0.646,4.346-0.765
		c0.6-0.858,0.702-1.907,0.38-2.821l15.574-6.048c0.09,0.19,0.225,0.372,0.407,0.49c0.557,0.405,1.335,0.258,1.727-0.3
		c0.231-0.327,0.274-0.727,0.161-1.079l10.546-4.09c0.091,0.223,0.258,0.429,0.467,0.58c0.65,0.456,1.534,0.292,1.996-0.349
		c0.263-0.381,0.316-0.85,0.188-1.261l22.964-8.913c0.156,0.339,0.386,0.65,0.714,0.872c0.944,0.673,2.274,0.44,2.945-0.515
		c0.177-0.258,0.29-0.553,0.338-0.856l21.318,2.685l-15.814,36.768c-0.478-0.18-1.014-0.191-1.518,0.008
		c-1.084,0.429-1.615,1.647-1.191,2.738c0.434,1.084,1.663,1.607,2.746,1.175c0.178-0.064,0.344-0.164,0.488-0.279l29.649,35.62
		c-0.493,0.455-0.686,1.196-0.429,1.861c0.344,0.874,1.347,1.309,2.221,0.955c0.139-0.049,0.263-0.135,0.387-0.221l23.897,28.71
		c-0.596,0.543-0.923,1.331-0.858,2.141l-50.875,4.351c-0.006-0.129-0.033-0.257-0.081-0.375c-0.354-0.88-1.352-1.299-2.221-0.966
		c-0.874,0.349-1.298,1.341-0.96,2.221c0.349,0.869,1.335,1.299,2.21,0.955c0.569-0.236,0.944-0.725,1.052-1.277l62.274,7.838
		l3.615,5.3l-4.248,9.882c-0.467-0.183-1.009-0.199-1.507,0.005c-1.095,0.424-1.616,1.657-1.197,2.736
		c0.44,1.083,1.663,1.609,2.736,1.19c0.272-0.107,0.504-0.268,0.708-0.456l33.833,31.553c-0.392,0.462-0.526,1.116-0.284,1.717
		c0.338,0.88,1.325,1.304,2.205,0.966c0.214-0.091,0.402-0.209,0.558-0.364l10.343,9.64c-0.279,0.338-0.376,0.805-0.204,1.25
		c0.247,0.627,0.971,0.938,1.609,0.691c0.15-0.064,0.289-0.149,0.402-0.263l11.957,11.163l-30.025,1.153
		c-0.042-0.509-0.257-0.997-0.659-1.372c-0.848-0.789-2.188-0.741-2.978,0.111c-0.794,0.848-0.745,2.179,0.103,2.978
		c0.215,0.193,0.462,0.338,0.707,0.44l-13.926,44.111c-0.584-0.15-1.244,0.01-1.688,0.477c-0.511,0.553-0.58,1.353-0.231,1.985
		l0.091,0.166c0.07,0.086,0.141,0.172,0.236,0.263c0.161,0.161,0.354,0.279,0.563,0.354l0.183,0.048
		c0.59,0.135,1.229-0.016,1.663-0.493c0.493-0.536,0.574-1.314,0.257-1.932l39.761-23.437l28.705,25.668
		c-0.714,0.848-0.96,2.039-0.515,3.139c0.622,1.594,2.435,2.376,4.039,1.743c0.971-0.381,1.631-1.207,1.872-2.14l16.335,3.534
		c-0.038,0.21-0.011,0.43,0.069,0.645c0.247,0.633,0.966,0.938,1.604,0.691c0.375-0.155,0.627-0.45,0.729-0.815l11.051,2.398
		c-0.038,0.241-0.017,0.493,0.08,0.751c0.284,0.73,1.116,1.083,1.846,0.794c0.439-0.172,0.734-0.531,0.847-0.949l24.086,5.22
		c-0.058,0.364-0.032,0.75,0.113,1.115c0.429,1.094,1.646,1.62,2.736,1.196c1.084-0.43,1.614-1.658,1.19-2.736
		c-0.172-0.418-0.456-0.745-0.8-0.981l28.759-47.754c0.37,0.209,0.773,0.339,1.186,0.381l-1.238,16.673
		c-0.21-0.005-0.43,0.043-0.617,0.145c-0.596,0.349-0.805,1.105-0.473,1.701c0.204,0.338,0.542,0.558,0.901,0.605l-0.831,11.287
		c-0.247-0.011-0.505,0.037-0.73,0.166c-0.681,0.392-0.927,1.261-0.547,1.952c0.236,0.403,0.633,0.649,1.068,0.703l-1.83,24.569
		c-0.375-0.006-0.751,0.075-1.105,0.269c-1.008,0.578-1.362,1.86-0.783,2.875c0.564,1.019,1.852,1.373,2.865,0.805
		c0.955-0.542,1.314-1.711,0.885-2.693l102.69-51.294c0.112,0.198,0.278,0.392,0.478,0.53c0.627,0.435,1.433,0.387,2.001-0.037
		l48.488,54.454c-0.521,0.504-0.842,1.212-0.815,1.996c0.054,1.447,1.271,2.585,2.726,2.537c0.258-0.017,0.493-0.07,0.719-0.146
		l4.833,13.101c-0.794,0.327-1.304,1.115-1.275,1.984l-35.786,2.569c-0.012-0.075-0.012-0.15-0.018-0.224
		c-0.3-1.691-1.915-2.828-3.609-2.522c-1.695,0.301-2.821,1.915-2.526,3.605c0.177,1.029,0.848,1.845,1.722,2.269l-6.737,15.294
		c-0.199-0.081-0.42-0.103-0.639-0.064c-0.682,0.123-1.127,0.762-1.009,1.442c0.075,0.381,0.322,0.709,0.655,0.869l-4.565,10.343
		c-0.23-0.081-0.482-0.118-0.74-0.064c-0.783,0.134-1.299,0.869-1.159,1.652c0.069,0.45,0.365,0.821,0.757,1.014l-9.94,22.547
		c-0.349-0.134-0.729-0.183-1.121-0.113c-0.525,0.092-0.971,0.381-1.283,0.778l-30.962-22.257c0.064-0.097,0.128-0.198,0.177-0.306
		c0.462-1.063-0.038-2.313-1.1-2.778c-1.067-0.462-2.312,0.021-2.778,1.099c-0.075,0.178-0.118,0.37-0.141,0.537l-46.148-4.201
		c0.021-0.681-0.36-1.341-1.025-1.625c-0.869-0.375-1.861,0.021-2.237,0.886c-0.059,0.14-0.091,0.284-0.117,0.435l-37.202-3.391
		c0.059-1.072-0.531-2.114-1.567-2.559c-1.335-0.58-2.885,0.026-3.464,1.362c-0.58,1.341,0.043,2.881,1.367,3.471
		c1.223,0.525,2.618,0.043,3.294-1.073l83.185,45.979c-0.021,0.043-0.037,0.059-0.053,0.092c-0.365,0.842-0.124,1.791,0.504,2.381
		L834.778,891.7c-0.102-0.07-0.22-0.146-0.338-0.199c-0.863-0.37-1.872,0.027-2.243,0.886c-0.38,0.863,0.021,1.872,0.892,2.242
		c0.858,0.375,1.861-0.021,2.231-0.88c0.177-0.419,0.172-0.858,0.037-1.255l58.649-24.886c0.204,0.45,0.563,0.826,1.046,1.03
		c1.073,0.461,2.317-0.027,2.773-1.095c0.118-0.263,0.177-0.553,0.177-0.815l46.235-1.604c0.055,0.59,0.418,1.153,1.021,1.416
		c0.856,0.37,1.86-0.017,2.236-0.886c0.086-0.22,0.14-0.439,0.14-0.654l14.129-0.498c0.044,0.439,0.306,0.848,0.73,1.024
		c0.633,0.268,1.367-0.017,1.636-0.639c0.06-0.155,0.102-0.306,0.102-0.467l16.341-0.574l-20.412,22.048
		c-0.392-0.327-0.886-0.525-1.433-0.499c-1.164,0.037-2.076,1.015-2.033,2.179c0.037,1.169,1.024,2.075,2.189,2.038
		c0.005-0.006,0.016-0.006,0.026-0.011l9.575,97.867c-0.704,0.124-1.218,0.74-1.19,1.46c0.021,0.794,0.687,1.405,1.475,1.378
		c0.473-0.021,0.869-0.258,1.116-0.611l34.638,20.781l-0.478,7.033c-0.069,0-0.145-0.017-0.22-0.006
		c-1.717,0.06-3.063,1.502-3.01,3.219c0.07,1.722,1.508,3.068,3.225,3.01c1.046-0.038,1.952-0.59,2.49-1.39l14.209,8.781
		c-0.097,0.188-0.155,0.402-0.15,0.628c0.025,0.687,0.601,1.218,1.287,1.196c0.397-0.016,0.741-0.226,0.955-0.525l9.613,5.954
		c-0.113,0.22-0.183,0.462-0.177,0.729c0.032,0.789,0.691,1.395,1.479,1.368c0.462-0.011,0.864-0.247,1.111-0.601l20.953,12.966
		c-0.177,0.327-0.284,0.697-0.269,1.094c0.043,1.164,1.02,2.071,2.184,2.033c1.17-0.043,2.076-1.03,2.038-2.184
		c-0.048-1.158-1.019-2.086-2.189-2.032c-0.375,0.016-0.729,0.14-1.023,0.321l-48.585-70.762c0.536-0.402,0.863-1.035,0.836-1.743
		c-0.026-0.901-0.616-1.642-1.404-1.921l27.283-91.44c1.459,0.386,3.036-0.322,3.658-1.755c0.407-0.96,0.301-2.012-0.199-2.838
		l14.06-9.055c0.123,0.166,0.289,0.312,0.495,0.392c0.633,0.279,1.362-0.017,1.636-0.638c0.15-0.36,0.123-0.762-0.064-1.09
		l9.506-6.126c0.149,0.21,0.349,0.37,0.584,0.478c0.725,0.316,1.562-0.026,1.878-0.74c0.188-0.435,0.146-0.891-0.075-1.271
		l20.723-13.336c0.209,0.301,0.504,0.553,0.869,0.714c1.067,0.461,2.313-0.027,2.779-1.095c0.461-1.072-0.033-2.317-1.1-2.778
		c-1.074-0.467-2.308,0.021-2.775,1.1c-0.149,0.349-0.187,0.713-0.149,1.063l-50.371,7.981l1.904-88.952
		c0.027,0.006,0.054,0.006,0.092-0.005c0.917-0.161,1.539-1.041,1.378-1.963c-0.16-0.939-1.046-1.556-1.98-1.391
		c-0.24,0.049-0.465,0.146-0.664,0.279l-17.445-20.448c0.382-0.376,0.585-0.939,0.483-1.508c-0.017-0.102-0.043-0.188-0.075-0.274
		l49.084-21.451l11.828,8.245l-6.576,56.996c-1.47-0.118-2.854,0.811-3.268,2.27c-0.456,1.662,0.516,3.385,2.178,3.841
		c1.004,0.278,2.033,0.026,2.785-0.585l10.911,12.66c-0.155,0.15-0.28,0.332-0.333,0.553c-0.183,0.67,0.204,1.341,0.869,1.523
		c0.381,0.112,0.772,0.012,1.073-0.204l7.37,8.572c-0.178,0.161-0.316,0.381-0.387,0.633c-0.203,0.768,0.236,1.552,0.999,1.754
		c0.444,0.129,0.896,0.021,1.244-0.241l16.087,18.664c-0.273,0.256-0.481,0.578-0.59,0.964c-0.311,1.133,0.343,2.291,1.471,2.597
		c1.121,0.312,2.279-0.343,2.596-1.47c0.312-1.115-0.349-2.28-1.471-2.591c-0.214-0.064-0.418-0.075-0.621-0.064l-6.352-84.607
		c0.038,0,0.069,0.006,0.113-0.005c1.147-0.204,1.914-1.304,1.705-2.446c-0.032-0.193-0.098-0.37-0.178-0.542l40.84-21.913
		c0.349,0.585,1.03,0.928,1.742,0.805c0.93-0.166,1.546-1.052,1.38-1.975c-0.032-0.15-0.08-0.295-0.14-0.434l32.916-17.66
		c0.542,0.917,1.604,1.47,2.714,1.271c1.433-0.258,2.394-1.615,2.141-3.058C1191.708,703.625,1190.341,702.67,1188.908,702.922
		 M1083.171,716.488l23.936,30.834c-0.112,0.097-0.22,0.21-0.306,0.322l-21.104-14.698l-2.863-16.313
		C1082.951,716.606,1083.069,716.559,1083.171,716.488 M1082.451,716.682c0.07,0.005,0.13,0,0.188-0.006l2.827,16.109l-4.518-3.138
		L1082.451,716.682z M1079.545,696.945c-0.06-0.005-0.118-0.005-0.167,0l-8.004-45.58c0.735-0.161,1.357-0.703,1.572-1.48
		c0.145-0.526,0.075-1.068-0.161-1.519l9.237-5.268L1079.545,696.945z M1118.002,530.269c0.048,0.016,0.097,0.043,0.139,0.054
		c0.247,0.069,0.494,0.083,0.735,0.083l1.786,37.317c-0.672,0.064-1.261,0.536-1.453,1.223c-0.252,0.912,0.273,1.856,1.195,2.098
		c0.14,0.043,0.279,0.06,0.425,0.06l2.215,46.289c-0.836,0.08-1.588,0.67-1.823,1.528c-0.06,0.193-0.07,0.365-0.075,0.542
		l-35.905,1.304c-0.058-0.757-0.535-1.427-1.25-1.743L1118.002,530.269z M1085.183,621.507c0.048-0.183,0.063-0.359,0.063-0.548
		l35.908-1.298c0.018,0.279,0.098,0.537,0.222,0.783l-39.139,22.305l0.912-19.703
		C1084.071,623.046,1084.925,622.44,1085.183,621.507 M1037.572,592.421l43.748,27.487c-0.086,0.15-0.155,0.295-0.198,0.478
		c-0.317,1.116,0.338,2.279,1.469,2.591c0.113,0.038,0.235,0.054,0.36,0.06l-0.918,19.826l-9.345,5.327
		c-0.268-0.419-0.681-0.757-1.212-0.901c-0.542-0.151-1.095-0.075-1.556,0.172l-32.761-54.626
		C1037.321,592.727,1037.461,592.593,1037.572,592.421 M1036.988,592.941l32.761,54.631c-0.408,0.274-0.725,0.676-0.874,1.186
		c-0.012,0.064-0.017,0.129-0.027,0.198l-37.438-4.844c0.011-0.183,0.011-0.359-0.021-0.547c-0.204-1.148-1.304-1.91-2.442-1.706
		c-0.552,0.097-1.008,0.396-1.318,0.815l-55.237-37.669c0.387-0.628,0.435-1.443,0.049-2.141c-0.097-0.16-0.22-0.316-0.354-0.445
		l31.162-34.305c0.525,0.435,1.282,0.525,1.909,0.166c0.172-0.097,0.317-0.225,0.44-0.37l29.192,22.568
		c-0.097,0.155-0.182,0.316-0.23,0.498c-0.258,0.912,0.273,1.846,1.186,2.104C1036.179,593.199,1036.613,593.146,1036.988,592.941
		 M998.612,667.254l29.085-21.972c0.467,0.563,1.207,0.874,1.979,0.739c0.124-0.026,0.247-0.064,0.36-0.102l28.093,66.685
		c-0.295,0.15-0.536,0.344-0.729,0.579l-58.756-42.962C999.267,669.305,999.218,668.118,998.612,667.254 M1027.568,645.126
		l-29.069,21.973c-0.155-0.177-0.321-0.354-0.521-0.493c-0.729-0.516-1.625-0.602-2.397-0.322l-24.107-60.462
		c0.054-0.032,0.112-0.048,0.166-0.075c0.263-0.149,0.478-0.349,0.645-0.563l55.236,37.657c-0.269,0.43-0.381,0.938-0.29,1.47
		C1027.29,644.616,1027.408,644.885,1027.568,645.126 M1032.413,538.571l3.577,51.173c-0.423,0.054-0.794,0.263-1.072,0.574
		l-29.198-22.563c0.354-0.516,0.413-1.201,0.08-1.792c-0.074-0.134-0.171-0.247-0.273-0.354l25.116-27.648
		C1031.142,538.377,1031.774,538.586,1032.413,538.571 M943.172,575.813l86.806-38.701c0.021,0.043,0.032,0.093,0.064,0.136
		c0.123,0.223,0.284,0.408,0.45,0.577l-25.104,27.65c-0.531-0.429-1.282-0.515-1.904-0.155c-0.827,0.461-1.116,1.507-0.645,2.323
		c0.075,0.128,0.161,0.24,0.263,0.337l-31.161,34.306c-0.655-0.542-1.599-0.654-2.382-0.214c-0.161,0.085-0.295,0.209-0.429,0.337
		l-26.308-24.472C943.311,577.353,943.461,576.543,943.172,575.813 M942.249,578.415c0.166-0.081,0.305-0.204,0.434-0.333
		l26.313,24.467c-0.177,0.204-0.316,0.456-0.396,0.703l-43.446-11.893l14.58-13.294
		C940.377,578.721,941.412,578.897,942.249,578.415 M968.556,604.399l-83.213,24.012c-0.037-0.086-0.07-0.188-0.117-0.264
		c-0.049-0.091-0.103-0.161-0.167-0.235l39.922-36.397l43.569,11.931C968.48,603.762,968.48,604.083,968.556,604.399
		 M928.569,524.183c0.192,0.03,0.396,0.04,0.59,0.011l11.49,50.363c-0.161,0.043-0.321,0.097-0.477,0.193
		c-1.014,0.568-1.368,1.851-0.789,2.875c0.059,0.107,0.134,0.198,0.215,0.295L924.927,591.3l-10.375-2.844
		c0.108-0.498,0.049-1.029-0.214-1.501c-0.279-0.493-0.725-0.826-1.234-0.977L928.569,524.183z M911.377,589.771
		c0.638,0.396,1.464,0.455,2.167,0.059c0.472-0.263,0.799-0.697,0.955-1.181l10.251,2.806l-39.825,36.307
		c-0.038-0.027-0.081-0.07-0.118-0.102L911.377,589.771z M873.322,644.026c0.112,0.054,0.229,0.102,0.348,0.129l-4.876,38.73
		c-0.145-0.005-0.295-0.005-0.435,0.017l-4.549-25.32L873.322,644.026z M854.718,671.971c-0.146-0.243-0.338-0.457-0.547-0.623
		l9.483-13.535l4.507,25.122c-0.44,0.102-0.843,0.338-1.143,0.697l-12.414-9.42C855.045,673.568,855.126,672.699,854.718,671.971
		 M850.915,673.761l-32.863,14.388c-0.042-0.069-0.053-0.14-0.091-0.209c-0.07-0.113-0.155-0.204-0.226-0.307l29.896-23.71
		l4.125,7.312C850.894,671.776,850.555,672.833,850.915,673.761 M847.787,663.794l14.844-11.759l0.981,5.504l-9.607,13.701
		c-0.612-0.381-1.4-0.451-2.077-0.107L847.787,663.794z M873.161,643.925l-9.389,13.38l-0.965-5.408l10.214-8.111
		C873.069,643.828,873.112,643.882,873.161,643.925 M872.753,642.589c-0.103,0.316-0.075,0.665,0.097,0.971
		c0.017,0.032,0.037,0.043,0.06,0.08l-10.145,8.036l-2.505-13.979L872.753,642.589z M862.588,651.815l-14.893,11.817l-22.343-39.61
		l34.692,13.588L862.588,651.815z M855.92,625.439c-0.086,0.745,0.219,1.518,0.874,1.974c0.451,0.316,0.981,0.429,1.485,0.354
		l1.723,9.613l-34.805-13.631l-2.178-3.862L855.92,625.439z M824.908,623.636l-14.661-5.745c0.011-0.053,0.032-0.091,0.044-0.149
		l12.477,2.108L824.908,623.636z M810.236,598.665c0.178,0,0.359-0.043,0.521-0.107l11.888,21.077l-12.328-2.087
		c0.075-0.601-0.166-1.229-0.696-1.599c-0.231-0.15-0.479-0.247-0.73-0.278L810.236,598.665z M790.576,614.415
		c-0.026,0.413,0.149,0.843,0.52,1.095c0.563,0.391,1.331,0.252,1.723-0.301c0.086-0.123,0.14-0.247,0.183-0.386l13.952,2.35
		c-0.064,0.601,0.183,1.206,0.708,1.576c0.23,0.161,0.5,0.253,0.768,0.279l-2.13,26.795c-0.37-0.021-0.746,0.081-1.057,0.29
		l-25.577-33.544L790.576,614.415z M762.429,593.881c0.816,0.338,1.776,0.258,2.521-0.269l14.247,18.684l-21.505-3.626
		c0.097-0.74-0.221-1.519-0.868-1.974c-0.081-0.06-0.161-0.097-0.248-0.135L762.429,593.881z M757.339,609.63
		c0.166-0.241,0.268-0.499,0.337-0.762l21.705,3.659l25.7,33.709c-0.107,0.086-0.203,0.183-0.283,0.307
		c-0.339,0.472-0.392,1.062-0.199,1.571l-77.639,25.958c-0.107-0.279-0.279-0.558-0.521-0.777c-0.14-0.14-0.301-0.236-0.472-0.322
		l19.403-42.089c0.633,0.252,1.373,0.102,1.872-0.419c0.638-0.687,0.6-1.759-0.087-2.413c-0.112-0.103-0.235-0.183-0.369-0.247
		l8.035-17.435C755.708,610.725,756.764,610.456,757.339,609.63 M706.113,588.8l15.584-6.051c0.226,0.515,0.579,0.987,1.072,1.331
		c1.293,0.906,3.031,0.681,4.067-0.435l27.122,23.464c-0.027,0.042-0.053,0.07-0.08,0.106c-0.081,0.113-0.146,0.236-0.204,0.354
		l-47.562-18.095C706.184,589.256,706.178,589.021,706.113,588.8 M690.638,594.803c0.103,0.215,0.252,0.397,0.461,0.547
		c0.639,0.451,1.535,0.295,1.996-0.348c0.252-0.376,0.306-0.821,0.182-1.224l10.546-4.093c0.093,0.177,0.222,0.343,0.393,0.456
		c0.563,0.392,1.336,0.257,1.728-0.301c0.043-0.059,0.069-0.112,0.107-0.183l47.561,18.105c-0.049,0.149-0.075,0.311-0.092,0.461
		l-85.75-3.841c0.006-0.236-0.037-0.451-0.101-0.665L690.638,594.803z M653.553,487.158c-0.004,0.054,0,0.11-0.004,0.158
		l-51.466,4.41c-0.028-0.172-0.059-0.34-0.129-0.507c-0.424-1.081-1.647-1.612-2.731-1.18c-0.118,0.043-0.231,0.107-0.326,0.175
		l-7.447-10.864L653.553,487.158z M591.037,479.093l-5.337-0.668l1.888-4.377L591.037,479.093z M557.231,429.062l33.844,31.559
		c-0.488,0.577-0.654,1.386-0.37,2.135c0.204,0.512,0.585,0.893,1.046,1.116l-4.211,9.771l-30.443-44.485
		C557.14,429.129,557.188,429.097,557.231,429.062 M560.793,402.774l-30.223,1.159l-12.236-11.419
		c0.182-0.219,0.322-0.474,0.413-0.751l42.084,10.611C560.804,402.509,560.788,402.635,560.793,402.774 M576.575,356.002
		c0.07,0.107,0.15,0.204,0.252,0.298c0.162,0.152,0.349,0.26,0.542,0.332l-13.937,44.128c-0.713-0.188-1.497-0.003-2.044,0.555
		l-24.515-21.919L576.575,356.002z M561.265,401.465c-0.177,0.223-0.306,0.467-0.381,0.719l-42.089-10.616
		c0.075-0.381,0.048-0.794-0.101-1.188c-0.038-0.07-0.07-0.135-0.102-0.199l18.104-10.675L561.265,401.465z M506.784,354.505
		c0.43-0.174,0.8-0.434,1.1-0.753l28.651,25.615l-18.04,10.637c-0.472-0.738-1.368-1.097-2.237-0.901l-9.688-34.536
		C506.645,354.543,506.715,354.53,506.784,354.505 M445.931,338.78l24.081,5.214c-0.033,0.23-0.011,0.475,0.085,0.71
		c0.295,0.735,1.116,1.092,1.84,0.797c0.43-0.161,0.725-0.504,0.848-0.909l11.051,2.395c-0.033,0.196-0.006,0.408,0.07,0.604
		c0.262,0.635,0.981,0.941,1.608,0.694c0.371-0.142,0.613-0.439,0.725-0.78l16.334,3.54c-0.096,0.561-0.064,1.143,0.162,1.706
		c0.584,1.473,2.156,2.235,3.648,1.867l9.682,34.541c-0.038,0.014-0.08,0.021-0.113,0.03c-0.348,0.144-0.638,0.375-0.869,0.657
		l-69.426-50.452C445.786,339.203,445.872,338.999,445.931,338.78 M445.534,339.552l69.432,50.444
		c-0.36,0.558-0.468,1.271-0.2,1.934c0.43,1.089,1.664,1.62,2.737,1.186c0.268-0.105,0.504-0.264,0.697-0.449l12.097,11.271
		l-25.508,0.979c-0.037-0.507-0.252-0.995-0.654-1.365c-0.773-0.725-1.942-0.746-2.747-0.1l-56.025-63.699
		C445.427,339.692,445.48,339.619,445.534,339.552 M416.245,329.357c0.198,0.097,0.418,0.158,0.643,0.185l-1.824,24.577
		c-0.241,0-0.488,0.054-0.697,0.174c-0.687,0.396-0.923,1.269-0.542,1.95c0.23,0.397,0.606,0.639,1.025,0.7l-0.837,11.279
		c-0.198,0.003-0.408,0.054-0.596,0.158c-0.584,0.338-0.788,1.092-0.461,1.687c0.188,0.336,0.51,0.55,0.874,0.609l-1.249,16.673
		c-0.558-0.027-1.137,0.091-1.664,0.397c-1.378,0.772-1.914,2.438-1.346,3.857l-32.868,14.382c-0.015-0.033-0.021-0.07-0.048-0.105
		c-0.171-0.335-0.45-0.587-0.751-0.77L416.245,329.357z M372.986,407.956c0.15,0.252,0.333,0.464,0.545,0.633l-9.487,13.54
		l-4.501-25.13c0.429-0.099,0.832-0.341,1.145-0.705l12.405,9.43C372.651,406.373,372.571,407.237,372.986,407.956 M373.697,408.691
		c0.611,0.381,1.389,0.448,2.079,0.102l4.13,7.341l-14.833,11.761l-0.981-5.498L373.697,408.691z M375.937,408.699
		c0.863-0.537,1.212-1.607,0.847-2.538l32.873-14.371c0.027,0.067,0.043,0.135,0.086,0.199c0.059,0.112,0.144,0.212,0.225,0.314
		l-29.901,23.708L375.937,408.699z M416.072,329.261l-40.345,75.75c-0.601-0.279-1.324-0.282-1.944,0.072
		c-0.226,0.126-0.419,0.293-0.577,0.489l-12.4-9.428c0.604-0.864,0.454-2.02-0.289-2.723l55.33-64.303
		C415.907,329.172,415.992,329.212,416.072,329.261 M415.301,328.483c0,0,0.005,0.008,0.005,0.01
		c0.107,0.188,0.246,0.349,0.396,0.486l-55.33,64.313c-0.027-0.029-0.065-0.048-0.089-0.072c-0.949-0.673-2.269-0.435-2.937,0.521
		c-0.118,0.158-0.192,0.332-0.252,0.503l-44.374-13.376c0.094-0.367,0.059-0.753-0.099-1.091L415.301,328.483z M261.415,324.782
		l48.475,54.461c-0.077,0.067-0.15,0.156-0.214,0.247c-0.081,0.123-0.148,0.255-0.196,0.402l-35.767-10.785
		c0.276-1.035-0.102-2.173-1.027-2.816c-0.62-0.443-1.361-0.564-2.047-0.416l-10.165-40.6
		C260.828,325.173,261.144,325.004,261.415,324.782 M258.749,320.331c-0.995,0.405-1.674,1.385-1.634,2.519
		c0.009,0.021,0,0.046,0.014,0.078l-32.535,3.334c-0.035-0.145-0.083-0.276-0.156-0.392l27.19-19.344
		c0.469,0.591,1.231,0.92,2.022,0.786c0.089-0.024,0.174-0.048,0.266-0.083L258.749,320.331z M252.918,303.152
		c-0.096,0.019-0.182,0.048-0.271,0.075l-6.655-18.011c0.625-0.268,1.047-0.893,1.02-1.609c-0.035-0.944-0.821-1.668-1.759-1.642
		c-0.145,0.006-0.293,0.033-0.425,0.075l-16.042-43.475c0.217-0.099,0.419-0.228,0.587-0.391l53.977,53.458l-28.198,12.649
		C254.75,303.477,253.857,302.983,252.918,303.152 M226.147,215.903c-0.016,0.038-0.037,0.068-0.054,0.102
		c-0.153,0.349-0.198,0.714-0.158,1.07l-13.451,2.132l-18.113-20.223c0.201-0.191,0.354-0.416,0.502-0.654L226.147,215.903z
		 M194.969,198.155c0.038-0.064,0.083-0.121,0.113-0.193c0.174-0.429,0.26-0.871,0.244-1.311l71.48-4.005
		c0.03,0.284,0.113,0.539,0.242,0.775l-37.262,22.257c-0.222-0.327-0.525-0.598-0.917-0.77c-0.973-0.418-2.081-0.051-2.62,0.823
		L194.969,198.155z M225.96,217.271c0.136,0.646,0.576,1.221,1.228,1.51c1.07,0.461,2.309-0.032,2.773-1.1
		c0.121-0.265,0.174-0.539,0.177-0.81l16.519-0.579l-17.337,18.724c-0.397-0.324-0.893-0.515-1.435-0.499
		c-0.478,0.017-0.907,0.202-1.252,0.48l-13.988-15.615L225.96,217.271z M291.153,302.414l-35.783,2.57
		c-0.011-0.04-0.003-0.083-0.011-0.118c-0.024-0.142-0.064-0.279-0.116-0.405l28.246-12.679l8.492,8.4
		C291.423,300.77,291.118,301.564,291.153,302.414 M295.412,299.408c-0.52-0.204-1.108-0.29-1.701-0.186
		c-0.633,0.119-1.18,0.406-1.604,0.811l-8.414-8.339l17.987-8.068c0.11,0.206,0.279,0.373,0.477,0.486L295.412,299.408z
		 M353.417,267.205l-16.67-41.85l19.384,3.629c-0.125,0.92,0.355,1.841,1.242,2.221c0.174,0.078,0.346,0.118,0.532,0.15
		l-3.683,35.735C353.948,267.076,353.677,267.114,353.417,267.205 M360.004,230.373l83.186,45.979
		c-0.027,0.048-0.059,0.085-0.086,0.137c-0.092,0.232-0.15,0.469-0.182,0.711l-37.192-3.396c0.027-0.676-0.365-1.331-1.019-1.613
		c-0.858-0.372-1.872,0.025-2.242,0.883c-0.06,0.143-0.097,0.276-0.118,0.421l-46.147-4.209c0.04-0.85-0.44-1.67-1.266-2.032
		c-0.166-0.073-0.341-0.113-0.521-0.14l3.683-35.74C358.854,231.414,359.591,231.041,360.004,230.373 M333.738,214.072
		c0.228-0.523,0.228-1.079,0.04-1.575l58.638-24.883c0.091,0.186,0.209,0.344,0.359,0.481l-33.281,39.508
		c-0.136-0.102-0.276-0.193-0.442-0.26c-1.067-0.472-2.312,0.024-2.771,1.091c-0.056,0.121-0.09,0.236-0.123,0.357l-19.5-3.659
		l-3.982-9.988C333.14,214.935,333.529,214.57,333.738,214.072 M283.468,215.015l46.244-1.614c0.056,0.748,0.515,1.443,1.255,1.764
		c0.507,0.215,1.046,0.218,1.534,0.049l3.924,9.876l-52.971-9.919C283.46,215.115,283.466,215.066,283.468,215.015 M283.334,215.633
		c0.037-0.084,0.059-0.175,0.083-0.264l53.099,9.938l16.713,41.971c-0.292,0.136-0.563,0.343-0.783,0.611l-30.952-22.259
		c0.281-0.432,0.412-0.957,0.31-1.51c-0.198-1.148-1.293-1.915-2.44-1.717c-0.497,0.094-0.926,0.357-1.231,0.716l-34.963-27.2
		C283.229,215.833,283.286,215.734,283.334,215.633 M265.935,215.621l14.154-0.493c0.056,0.593,0.421,1.137,1,1.398
		c0.694,0.299,1.475,0.093,1.953-0.451l34.962,27.194c-0.027,0.049-0.057,0.105-0.089,0.156l-52.072-27.401
		C265.905,215.895,265.929,215.756,265.935,215.621 M263.486,215.704c0.064,0.422,0.316,0.795,0.721,0.972
		c0.579,0.249,1.223,0.026,1.54-0.478l52.083,27.396c-0.194,0.376-0.255,0.813-0.183,1.261c0.134,0.676,0.571,1.222,1.143,1.512
		l-9.938,22.558c-0.22-0.083-0.464-0.113-0.718-0.07c-0.765,0.139-1.283,0.877-1.149,1.655c0.067,0.448,0.355,0.794,0.725,1
		l-4.563,10.354c-0.19-0.067-0.394-0.089-0.603-0.057c-0.681,0.126-1.124,0.77-1.006,1.44c0.013,0.07,0.027,0.135,0.056,0.194
		l-18.048,8.103l-54.016-53.505c0.348-0.391,0.565-0.914,0.539-1.486c-0.022-0.549-0.255-1.04-0.604-1.402l17.466-18.864
		L263.486,215.704z M246.848,216.088l-16.726,0.588c-0.027-0.29-0.102-0.569-0.247-0.824l37.269-22.259
		c0.073,0.11,0.156,0.214,0.247,0.314L246.848,216.088z M259.02,92.474l9.58,97.878c-0.206,0.03-0.41,0.081-0.59,0.164
		l-21.336-41.056c0.523-0.306,0.866-0.874,0.847-1.521c-0.04-0.942-0.825-1.674-1.764-1.641c-0.234,0.007-0.457,0.064-0.647,0.152
		l-6.526-12.539c0.376-0.231,0.628-0.638,0.612-1.11c-0.03-0.684-0.603-1.215-1.288-1.191c-0.163,0.005-0.319,0.048-0.461,0.107
		L222.059,102.1c0.644-0.372,1.081-1.078,1.049-1.882c0-0.113-0.024-0.223-0.043-0.328l34.557-8.405
		C257.807,92.075,258.37,92.493,259.02,92.474 M257.711,90.406c-0.107,0.21-0.164,0.44-0.159,0.694
		c-0.002,0.068,0.015,0.132,0.025,0.191L223.014,99.7c-0.233-0.805-0.925-1.397-1.77-1.494l1.926-28.538L257.711,90.406z
		 M223.454,62.401l-0.469,6.926l-31.717-19.041c0.016-0.038,0.042-0.078,0.056-0.115l29.437,8.389
		c-0.072,0.28-0.126,0.556-0.11,0.864C220.713,61.004,221.926,62.248,223.454,62.401 M171.777,27.263l20.955,12.962
		c-0.107,0.209-0.163,0.451-0.158,0.703c0.024,0.788,0.689,1.402,1.478,1.374c0.453-0.017,0.842-0.245,1.094-0.58l9.619,5.949
		c-0.084,0.182-0.142,0.383-0.132,0.592c0.022,0.687,0.598,1.218,1.282,1.194c0.392-0.016,0.722-0.201,0.938-0.496l14.221,8.803
		c-0.118,0.19-0.204,0.392-0.271,0.608l-29.437-8.389c0.021-0.097,0.032-0.191,0.03-0.287c-0.019-0.687-0.594-1.221-1.28-1.193
		c-0.254,0.002-0.485,0.093-0.676,0.228l-17.962-21.127C171.594,27.503,171.698,27.386,171.777,27.263 M219.887,98.507
		l-48.569-70.754c0.003-0.008,0.016-0.011,0.016-0.016l17.954,21.128c-0.236,0.233-0.37,0.555-0.362,0.917
		c0.019,0.681,0.595,1.215,1.282,1.193c0.389-0.013,0.74-0.22,0.958-0.52l31.808,19.095l-1.931,28.643
		c-0.038,0.002-0.078-0.009-0.113-0.006C220.544,98.195,220.192,98.319,219.887,98.507 M220.488,102.334
		c0.198,0.046,0.383,0.077,0.59,0.067c0.286-0.013,0.56-0.078,0.802-0.193l15.393,29.614c-0.349,0.225-0.577,0.622-0.558,1.067
		c0.022,0.685,0.603,1.223,1.287,1.196c0.137-0.005,0.282-0.037,0.4-0.085l6.531,12.55c-0.507,0.314-0.842,0.877-0.821,1.51
		c0.035,0.941,0.818,1.679,1.76,1.639c0.225-0.003,0.44-0.057,0.622-0.143l21.35,41.062c-0.641,0.362-1.062,1.051-1.056,1.834
		l-71.484,4c-0.093-1.105-0.764-2.116-1.847-2.588c-0.081-0.036-0.167-0.054-0.266-0.084L220.488,102.334z M194.218,199.102
		l18.035,20.14l-20.492,3.246l0.491-22.648C192.971,199.826,193.665,199.563,194.218,199.102 M141.176,230.5
		c-0.052-0.223-0.132-0.426-0.25-0.628l20.722-13.346c0.142,0.193,0.328,0.348,0.561,0.447c0.717,0.322,1.561-0.016,1.875-0.737
		c0.179-0.416,0.136-0.867-0.054-1.237l9.509-6.129c0.12,0.156,0.273,0.295,0.471,0.378c0.631,0.269,1.36-0.016,1.64-0.646
		c0.152-0.354,0.117-0.74-0.044-1.059l14.055-9.053c0.319,0.464,0.759,0.856,1.323,1.092c0.346,0.153,0.713,0.222,1.067,0.244
		l-0.48,22.697L141.176,230.5z M189.854,311.655l1.905-88.969l20.652-3.269l14.072,15.709c-0.403,0.403-0.661,0.961-0.631,1.575
		c0.024,0.767,0.461,1.413,1.081,1.762l-36.54,73.275C190.216,311.684,190.039,311.652,189.854,311.655 M190.578,311.802
		l36.529-73.25c0.279,0.123,0.598,0.193,0.928,0.185c0.19-0.006,0.375-0.049,0.563-0.11l16.042,43.479
		c-0.627,0.271-1.061,0.898-1.034,1.622c0.043,0.945,0.828,1.677,1.767,1.645c0.153-0.014,0.3-0.038,0.445-0.086l6.641,18.006
		c-0.818,0.351-1.346,1.188-1.268,2.102l-59.671,7.567C191.399,312.429,191.042,312.022,190.578,311.802 M190.989,314.626
		c0.416-0.364,0.63-0.904,0.569-1.472l59.646-7.569c0,0.008,0,0.008,0.002,0.008c0.046,0.282,0.157,0.55,0.296,0.775l-27.187,19.35
		c-0.282-0.317-0.702-0.486-1.137-0.411c-0.679,0.123-1.124,0.767-1.009,1.44c0.025,0.14,0.081,0.268,0.151,0.392l-11.529,8.202
		c-0.386-0.459-0.979-0.713-1.612-0.603c-0.284,0.048-0.53,0.169-0.745,0.337L190.989,314.626z M209.772,338.088
		c0.263-0.046,0.502-0.161,0.711-0.309l11.059,12.977c-0.276,0.268-0.416,0.681-0.333,1.089c0.099,0.63,0.668,1.059,1.293,1.016
		l8.256,55.728c-0.609,0.107-1.172,0.445-1.58,0.963l-58.756-42.963c0.287-0.443,0.419-0.979,0.327-1.529
		c-0.056-0.29-0.161-0.547-0.308-0.773l37.698-26.819C208.522,337.94,209.131,338.203,209.772,338.088 M200.13,434.802l29.072-21.97
		c0.153,0.185,0.319,0.36,0.517,0.504c0.73,0.505,1.618,0.591,2.401,0.313l24.113,60.459c-0.061,0.032-0.12,0.046-0.175,0.083
		c-0.262,0.142-0.471,0.341-0.64,0.563l-55.24-37.652c0.266-0.432,0.381-0.944,0.29-1.476
		C200.414,435.32,200.291,435.046,200.13,434.802 M229.087,412.682l-29.081,21.975c-0.472-0.568-1.212-0.872-1.982-0.732
		c-0.131,0.011-0.249,0.048-0.359,0.086l-28.091-66.693c0.285-0.129,0.537-0.332,0.735-0.571l58.742,42.955
		C228.427,410.627,228.48,411.81,229.087,412.682 M207.948,337.162c0.024,0.046,0.051,0.102,0.075,0.145l-37.701,26.828
		c-0.474-0.593-1.228-0.929-2.021-0.787c-0.543,0.092-0.988,0.39-1.301,0.794l-8.023-5.576L207.948,337.162z M152.964,293.091
		c0.123,0.03,0.249,0.038,0.378,0.057l-6.572,56.91l-4.586-3.191l-2.9-16.485c0.735-0.164,1.363-0.714,1.588-1.492
		c0.268-1.014-0.249-2.054-1.191-2.473l13.079-33.412C152.824,293.027,152.885,293.067,152.964,293.091 M112.819,244.313
		c0.386-0.043,0.746-0.201,1.035-0.435l16.089,18.671c-0.162,0.164-0.296,0.373-0.363,0.614c-0.212,0.765,0.239,1.548,1,1.763
		c0.437,0.118,0.874,0.016,1.215-0.228l7.376,8.567c-0.132,0.147-0.245,0.321-0.301,0.528c-0.187,0.657,0.209,1.344,0.864,1.521
		c0.37,0.104,0.748,0.021,1.048-0.183l10.909,12.66c-0.421,0.387-0.737,0.88-0.904,1.468c-0.413,1.517,0.37,3.071,1.784,3.676
		l-13.073,33.408c-0.03-0.014-0.07-0.033-0.107-0.046c-1.121-0.309-2.288,0.354-2.591,1.469c-0.317,1.127,0.343,2.283,1.464,2.597
		c0.276,0.083,0.56,0.097,0.826,0.059l2.862,16.289l-20.945-14.586c0.271-0.421,0.397-0.944,0.292-1.486
		c-0.18-1.041-1.1-1.759-2.132-1.733L112.819,244.313z M144.005,364.15c-0.03,0.118-0.035,0.234-0.037,0.346l-103.029,9.581
		c-0.013-0.035-0.011-0.078-0.019-0.118c-0.037-0.246-0.125-0.474-0.23-0.686l32.913-17.665c0.351,0.568,1.035,0.901,1.743,0.772
		c0.92-0.156,1.543-1.04,1.376-1.966c-0.026-0.15-0.072-0.287-0.131-0.413l40.836-21.914c0.432,0.73,1.277,1.154,2.17,0.998
		c0.314-0.051,0.596-0.182,0.842-0.351l23.93,30.826C144.203,363.721,144.066,363.914,144.005,364.15 M144.528,363.442
		l-23.939-30.834c0.113-0.096,0.221-0.204,0.306-0.322l21.107,14.701l2.869,16.308C144.751,363.327,144.633,363.378,144.528,363.442
		 M145.247,363.239c-0.062,0.005-0.127,0.01-0.185,0.013l-2.833-16.114l4.515,3.151L145.247,363.239z M146.931,350.415l11.649,8.114
		l-12.284,5.372c-0.153-0.292-0.413-0.517-0.765-0.609c-0.024-0.019-0.053-0.019-0.094-0.019L146.931,350.415z M147.929,379.611
		l-2.444-13.932c0.433-0.104,0.786-0.413,0.913-0.872c0.07-0.249,0.058-0.503-0.025-0.726l12.403-5.423l8.116,5.648
		c-0.265,0.429-0.4,0.952-0.305,1.491c0.206,1.143,1.305,1.91,2.445,1.709c0.129-0.024,0.245-0.067,0.365-0.102l28.089,66.69
		c-0.615,0.3-1.05,0.864-1.17,1.534l-37.433-4.849c0.091-0.993-0.539-1.921-1.532-2.194c-0.284-0.081-0.56-0.097-0.831-0.062
		l-7.998-45.576c0.587-0.134,1.094-0.568,1.26-1.199c0.25-0.903-0.278-1.845-1.183-2.092
		C148.371,379.595,148.149,379.57,147.929,379.611 M148.162,382.99c0.051,0.003,0.102,0.003,0.161-0.008l8.001,45.578
		c-0.735,0.164-1.365,0.72-1.569,1.487c-0.153,0.528-0.069,1.07,0.151,1.528l-9.236,5.257L148.162,382.99z M142.519,458.432
		c-0.054,0.172-0.07,0.36-0.067,0.534l-35.904,1.306c-0.032-0.276-0.102-0.539-0.225-0.786l39.136-22.305l-0.904,19.701
		C143.619,456.89,142.777,457.493,142.519,458.432 M190.119,487.51l-43.738-27.484c0.088-0.148,0.156-0.309,0.207-0.468
		c0.303-1.129-0.351-2.298-1.47-2.607c-0.129-0.034-0.247-0.048-0.367-0.058l0.914-19.827l9.347-5.33
		c0.267,0.429,0.685,0.765,1.21,0.912c0.547,0.145,1.1,0.065,1.561-0.182l32.766,54.63
		C190.383,487.209,190.238,487.341,190.119,487.51 M190.712,486.99l-32.763-54.629c0.408-0.273,0.727-0.676,0.864-1.191
		c0.024-0.059,0.03-0.131,0.049-0.19l37.43,4.841c-0.014,0.174-0.011,0.357,0.021,0.531c0.209,1.151,1.298,1.926,2.446,1.72
		c0.544-0.1,1.006-0.403,1.309-0.816l55.24,37.666c-0.392,0.633-0.438,1.449-0.043,2.135c0.094,0.18,0.217,0.317,0.349,0.448
		l-31.157,34.311c-0.534-0.44-1.292-0.518-1.912-0.161c-0.175,0.086-0.319,0.219-0.443,0.359l-29.198-22.56
		c0.107-0.158,0.198-0.319,0.241-0.509c0.25-0.901-0.279-1.843-1.185-2.092C191.523,486.74,191.083,486.793,190.712,486.99
		 M195.291,541.363l-3.586-51.179c0.424-0.048,0.805-0.258,1.073-0.569l29.206,22.557c-0.359,0.515-0.416,1.208-0.091,1.8
		c0.083,0.126,0.177,0.244,0.274,0.357l-25.109,27.635C196.56,541.551,195.93,541.339,195.291,541.363 M284.525,504.113
		l-86.799,38.709c-0.029-0.038-0.04-0.092-0.069-0.143c-0.126-0.22-0.282-0.405-0.461-0.568l25.124-27.653
		c0.528,0.426,1.276,0.506,1.906,0.156c0.816-0.468,1.103-1.511,0.638-2.321c-0.074-0.137-0.165-0.244-0.259-0.349l31.156-34.305
		c0.655,0.558,1.596,0.663,2.376,0.221c0.164-0.09,0.306-0.215,0.435-0.331l26.307,24.464
		C284.388,502.57,284.232,503.383,284.525,504.113 M285.445,501.516c-0.166,0.086-0.298,0.209-0.427,0.332l-26.317-24.458
		c0.182-0.217,0.313-0.453,0.397-0.721l43.443,11.9l-14.573,13.291C287.312,501.21,286.29,501.033,285.445,501.516 M259.148,475.528
		l83.208-24.005c0.035,0.088,0.069,0.175,0.12,0.27c0.052,0.078,0.102,0.157,0.164,0.229l-39.919,36.395l-43.567-11.935
		C259.216,476.175,259.216,475.853,259.148,475.528 M299.135,555.75c-0.193-0.032-0.4-0.043-0.598-0.016l-11.486-50.361
		c0.159-0.04,0.317-0.096,0.48-0.185c1.012-0.576,1.358-1.862,0.787-2.881c-0.068-0.107-0.132-0.201-0.218-0.297l14.669-13.373
		l10.386,2.843c-0.113,0.49-0.062,1.021,0.209,1.499c0.276,0.485,0.729,0.823,1.226,0.976L299.135,555.75z M316.324,490.157
		c-0.64-0.397-1.464-0.453-2.167-0.053c-0.48,0.268-0.801,0.697-0.96,1.182l-10.245-2.808l39.822-36.317
		c0.037,0.043,0.075,0.086,0.112,0.115L316.324,490.157z M344.84,449.503c-0.516-0.308-1.168-0.348-1.717-0.037
		c-0.676,0.383-0.978,1.148-0.816,1.856l-83.214,24.026c-0.038-0.125-0.095-0.246-0.153-0.37c-0.518-0.901-1.583-1.268-2.527-0.946
		L232.3,413.573c0.424-0.188,0.804-0.48,1.086-0.891c0.839-1.191,0.547-2.824-0.641-3.664c-0.547-0.38-1.182-0.512-1.795-0.453
		l-8.253-55.731c0.642-0.15,1.052-0.764,0.939-1.424c-0.118-0.668-0.759-1.124-1.429-0.998c-0.198,0.033-0.363,0.11-0.512,0.22
		l-11.064-12.979c0.41-0.378,0.619-0.947,0.515-1.535c-0.033-0.23-0.121-0.439-0.245-0.621l11.528-8.2
		c0.271,0.349,0.714,0.536,1.173,0.459c0.627-0.11,1.059-0.681,1.022-1.299l32.527-3.333c0.188,1.314,1.338,2.314,2.692,2.264
		c0.153-0.014,0.298-0.035,0.443-0.062l10.155,40.6c-0.55,0.161-1.068,0.499-1.43,1.008c-0.823,1.181-0.536,2.833,0.652,3.662
		c1.102,0.775,2.594,0.574,3.466-0.4l79.623,66.079c-0.258,0.381-0.298,0.89-0.062,1.317c0.07,0.131,0.169,0.235,0.276,0.324
		L344.84,449.503z M353.162,435.91c-0.105,0.053-0.193,0.131-0.276,0.207l-79.632-66.079c0.022-0.029,0.057-0.054,0.075-0.088
		c0.15-0.202,0.247-0.43,0.333-0.658l35.759,10.783c-0.158,0.662,0.089,1.378,0.678,1.786c0.768,0.545,1.832,0.349,2.366-0.418
		c0.091-0.118,0.148-0.25,0.196-0.381l44.374,13.373c-0.206,0.824,0.092,1.727,0.829,2.245c0.26,0.18,0.555,0.292,0.855,0.343
		l-4.897,38.723C353.605,435.735,353.371,435.789,353.162,435.91 M354.377,435.899c-0.115-0.056-0.228-0.096-0.354-0.121
		l4.879-38.73c0.15,0.005,0.303,0.005,0.437-0.014l4.544,25.314L354.377,435.899z M354.535,436.014l9.393-13.386l0.974,5.404
		l-10.225,8.106C354.632,436.092,354.587,436.049,354.535,436.014 M354.956,437.342c0.094-0.316,0.065-0.657-0.104-0.966
		c-0.013-0.034-0.043-0.048-0.059-0.074l10.149-8.053l2.503,13.985L354.956,437.342z M365.112,428.116l14.901-11.813l22.327,39.605
		l-34.683-13.588L365.112,428.116z M371.781,454.505c0.09-0.756-0.213-1.528-0.879-1.987c-0.451-0.312-0.976-0.427-1.476-0.357
		l-1.721-9.61l34.796,13.631l2.178,3.862L371.781,454.505z M402.791,456.292l14.666,5.745c-0.022,0.054-0.038,0.101-0.038,0.156
		l-12.483-2.109L402.791,456.292z M417.457,481.26c-0.172-0.005-0.36,0.038-0.521,0.116l-11.888-21.067l12.333,2.077
		c-0.076,0.603,0.171,1.223,0.702,1.593c0.226,0.153,0.478,0.249,0.725,0.284L417.457,481.26z M417.671,461.605
		c-0.064,0.078-0.101,0.169-0.144,0.247l-14.887-5.831l-22.476-39.847l29.911-23.716c0.95,1.127,2.586,1.462,3.911,0.703
		c1.497-0.85,2.028-2.749,1.175-4.238c-0.252-0.461-0.617-0.807-1.019-1.073l28.747-47.764c0.537,0.284,1.186,0.351,1.776,0.11
		c0.209-0.08,0.381-0.193,0.536-0.317l56.032,63.702c-0.027,0.03-0.044,0.054-0.081,0.073c-0.52,0.563-0.676,1.333-0.477,2.017
		l-77.661,25.971c-0.118-0.246-0.295-0.461-0.531-0.625c-0.766-0.536-1.834-0.354-2.37,0.413c-0.543,0.77-0.36,1.843,0.423,2.382
		c0.203,0.14,0.434,0.225,0.665,0.274l-2.119,26.798C418.54,460.884,417.999,461.133,417.671,461.605 M437.123,465.511
		c0.032-0.411-0.151-0.827-0.515-1.098c-0.563-0.383-1.341-0.246-1.733,0.32c-0.081,0.11-0.139,0.249-0.172,0.372l-13.947-2.354
		c0.059-0.596-0.193-1.197-0.725-1.562c-0.23-0.169-0.493-0.252-0.761-0.281l2.135-26.801c0.365,0.025,0.74-0.07,1.057-0.284
		l25.577,33.533L437.123,465.511z M465.275,486.045c-0.821-0.335-1.781-0.243-2.527,0.28L448.5,467.632l21.507,3.629
		c-0.092,0.748,0.219,1.519,0.874,1.982c0.075,0.051,0.155,0.091,0.241,0.129L465.275,486.045z M470.36,470.295
		c-0.161,0.247-0.268,0.499-0.332,0.765l-21.715-3.658l-25.696-33.705c0.102-0.086,0.204-0.188,0.295-0.309
		c0.322-0.474,0.381-1.062,0.188-1.568l77.633-25.967c0.113,0.285,0.285,0.561,0.526,0.784c0.14,0.133,0.3,0.235,0.461,0.321
		l-19.386,42.087c-0.639-0.247-1.379-0.114-1.872,0.421c-0.65,0.686-0.601,1.77,0.08,2.408c0.123,0.107,0.236,0.188,0.375,0.252
		l-8.041,17.434C471.991,469.199,470.934,469.48,470.36,470.295 M521.59,491.134l-15.594,6.047
		c-0.226-0.517-0.579-0.979-1.078-1.332c-1.282-0.907-3.021-0.684-4.055,0.45l-27.118-23.482c0.027-0.04,0.054-0.065,0.075-0.094
		c0.081-0.121,0.156-0.241,0.199-0.368l47.571,18.099C521.52,490.68,521.526,490.908,521.59,491.134 M537.055,485.128
		c-0.101-0.204-0.241-0.405-0.456-0.55c-0.643-0.445-1.534-0.29-1.989,0.356c-0.263,0.368-0.306,0.822-0.193,1.221l-10.542,4.099
		c-0.091-0.185-0.209-0.346-0.396-0.468c-0.553-0.391-1.331-0.262-1.722,0.312c-0.043,0.048-0.07,0.11-0.107,0.171l-47.562-18.104
		c0.048-0.15,0.076-0.306,0.092-0.459l85.744,3.841c-0.006,0.228,0.038,0.454,0.112,0.668L537.055,485.128z M564.124,475.708
		c0.049-0.719-0.246-1.451-0.885-1.891c-0.955-0.673-2.274-0.437-2.934,0.52c-0.226,0.306-0.343,0.655-0.37,1.017l-85.744-3.846
		c0.01-0.665-0.301-1.317-0.886-1.723c-0.086-0.05-0.166-0.093-0.252-0.139l8.041-17.434c0.634,0.242,1.357,0.094,1.856-0.421
		c0.644-0.689,0.607-1.765-0.08-2.411c-0.112-0.099-0.241-0.185-0.354-0.244l19.392-42.089c0.784,0.316,1.722,0.139,2.334-0.518
		c0.365-0.4,0.547-0.907,0.552-1.416l25.707-0.982l12.107,11.29c-0.252,0.338-0.338,0.783-0.161,1.201
		c0.247,0.639,0.966,0.95,1.604,0.7c0.128-0.059,0.247-0.131,0.349-0.225l10.342,9.65c-0.37,0.464-0.494,1.108-0.257,1.701
		c0.343,0.877,1.33,1.306,2.199,0.955c0.091-0.033,0.171-0.073,0.258-0.126l30.517,44.564l-1.963,4.56L564.124,475.708z
		 M569.779,515.429l15.846-36.813l5.568,0.697l7.537,11.011c-0.735,0.555-1.041,1.552-0.692,2.457
		c0.064,0.168,0.161,0.332,0.268,0.466l-27.873,22.673C570.25,515.708,570.031,515.547,569.779,515.429 M602.104,557.092
		c0.494-0.473,0.697-1.207,0.419-1.867c-0.344-0.879-1.331-1.309-2.21-0.961c-0.135,0.06-0.263,0.13-0.376,0.215l-29.654-35.604
		c0.622-0.576,0.869-1.496,0.541-2.336c-0.053-0.174-0.155-0.324-0.268-0.466l27.873-22.676c0.51,0.574,1.299,0.831,2.05,0.649
		l26.318,91.336c-0.044,0.011-0.103,0.021-0.156,0.032c-0.226,0.107-0.439,0.23-0.628,0.376L602.104,557.092z M574.139,592.77
		c0.017-0.043,0.012-0.097,0.012-0.155l50.87-4.351c0.021,0.192,0.064,0.392,0.146,0.574c0.536,1.347,2.06,2.012,3.422,1.47
		c0.166-0.06,0.316-0.145,0.456-0.236l7.205,10.52L574.139,592.77z M629.205,589.948c0.911-0.697,1.304-1.931,0.857-3.047
		c-0.08-0.193-0.172-0.37-0.295-0.531l27.503-22.354c0.184,0.209,0.403,0.37,0.65,0.488l-15.847,36.811l-5.568-0.697
		L629.205,589.948z M636.65,600.838l5.349,0.665l-1.895,4.383L636.65,600.838z M670.463,650.866l-33.834-31.559
		c0.482-0.574,0.66-1.385,0.359-2.13c-0.192-0.515-0.585-0.896-1.035-1.116l4.2-9.773l30.448,44.487
		C670.559,650.802,670.506,650.834,670.463,650.866 M685.092,664.514c0.251-0.344,0.332-0.795,0.165-1.213
		c-0.247-0.633-0.971-0.934-1.609-0.682c-0.129,0.043-0.247,0.124-0.354,0.221l-10.349-9.662c0.377-0.467,0.511-1.1,0.273-1.694
		c-0.348-0.875-1.335-1.31-2.204-0.955c-0.091,0.032-0.177,0.08-0.263,0.134l-30.514-44.589l1.959-4.538l21.378,2.688
		c-0.055,0.725,0.257,1.443,0.885,1.889c0.954,0.665,2.263,0.445,2.939-0.51c0.22-0.322,0.338-0.671,0.359-1.014l85.744,3.842
		c0,0.658,0.311,1.308,0.896,1.721c0.08,0.049,0.161,0.092,0.252,0.134l-8.035,17.435c-0.639-0.241-1.379-0.102-1.867,0.424
		c-0.639,0.691-0.606,1.771,0.086,2.403c0.113,0.112,0.235,0.192,0.359,0.252l-19.403,42.089c-0.782-0.321-1.722-0.155-2.322,0.505
		c-0.386,0.407-0.558,0.917-0.569,1.438l-25.694,0.976L685.092,664.514z M666.911,677.157l30.212-1.164l12.253,11.426
		c-0.188,0.226-0.327,0.478-0.419,0.751l-42.083-10.605C666.899,677.42,666.911,677.291,666.911,677.157 M651.124,723.93
		c-0.07-0.103-0.156-0.199-0.258-0.291c-0.15-0.155-0.344-0.268-0.536-0.343l13.941-44.128c0.714,0.193,1.486,0.006,2.038-0.552
		l24.521,21.919L651.124,723.93z M666.434,678.46c0.183-0.214,0.316-0.456,0.386-0.713l42.09,10.615
		c-0.081,0.382-0.055,0.789,0.091,1.187c0.037,0.074,0.08,0.145,0.118,0.209l-18.11,10.67L666.434,678.46z M720.914,725.431
		c-0.43,0.167-0.799,0.43-1.105,0.751l-28.646-25.62l18.041-10.627c0.477,0.729,1.373,1.095,2.231,0.885l9.688,34.547
		C721.059,725.387,720.988,725.394,720.914,725.431 M781.772,741.154l-24.086-5.215c0.027-0.236,0.006-0.472-0.085-0.713
		c-0.29-0.735-1.116-1.095-1.846-0.805c-0.429,0.172-0.719,0.51-0.837,0.917l-11.056-2.397c0.021-0.204,0.006-0.397-0.069-0.595
		c-0.258-0.645-0.972-0.951-1.616-0.698c-0.364,0.134-0.605,0.435-0.718,0.772l-16.345-3.535c0.102-0.553,0.068-1.143-0.151-1.711
		c-0.579-1.459-2.156-2.227-3.642-1.867l-9.688-34.536c0.038-0.006,0.075-0.016,0.118-0.032c0.349-0.134,0.633-0.375,0.864-0.649
		l69.426,50.447C781.918,740.73,781.827,740.935,781.772,741.154 M782.16,740.382l-69.433-50.447
		c0.37-0.553,0.467-1.266,0.198-1.931c-0.423-1.089-1.646-1.615-2.729-1.197c-0.274,0.118-0.506,0.27-0.704,0.468l-12.087-11.281
		l25.504-0.982c0.037,0.499,0.252,0.992,0.659,1.374c0.773,0.724,1.942,0.745,2.746,0.091l56.021,63.696
		C782.271,740.242,782.213,740.312,782.16,740.382 M813.713,686.765c-1.497,0.858-2.018,2.757-1.175,4.243
		c0.252,0.456,0.616,0.811,1.029,1.067l-28.769,47.765c-0.532-0.274-1.164-0.349-1.771-0.107c-0.203,0.081-0.376,0.188-0.536,0.322
		l-56.025-63.708c0.021-0.032,0.053-0.054,0.085-0.075c0.51-0.563,0.666-1.319,0.478-2.017l77.654-25.964
		c0.118,0.241,0.301,0.451,0.532,0.622c0.771,0.542,1.834,0.354,2.371-0.418c0.542-0.772,0.354-1.829-0.419-2.371
		c-0.209-0.146-0.44-0.237-0.676-0.273l2.13-26.801c0.542,0.006,1.072-0.245,1.416-0.719c0.054-0.086,0.092-0.172,0.135-0.257
		l14.885,5.83l22.483,39.842l-29.912,23.727C816.679,686.347,815.038,686.014,813.713,686.765 M811.46,750.568
		c-0.209-0.091-0.418-0.15-0.649-0.183l1.829-24.568c0.236-0.006,0.478-0.06,0.692-0.177c0.687-0.397,0.928-1.267,0.536-1.953
		c-0.22-0.392-0.606-0.633-1.02-0.697l0.843-11.281c0.192,0,0.401-0.054,0.59-0.15c0.59-0.349,0.794-1.088,0.462-1.695
		c-0.193-0.332-0.516-0.542-0.869-0.611l1.238-16.667c0.563,0.016,1.144-0.097,1.669-0.392c1.379-0.788,1.914-2.44,1.347-3.862
		l32.867-14.382c0.016,0.032,0.026,0.069,0.049,0.107c0.182,0.332,0.455,0.579,0.756,0.767L811.46,750.568z M811.632,750.67
		l40.339-75.75c0.607,0.284,1.331,0.284,1.948-0.074c0.225-0.119,0.413-0.296,0.574-0.489l12.392,9.431
		c-0.596,0.864-0.451,2.018,0.3,2.73l-55.334,64.303C811.787,750.767,811.707,750.719,811.632,750.67 M812.397,751.438h-0.005
		c-0.102-0.188-0.247-0.344-0.396-0.494l55.339-64.308c0.021,0.027,0.054,0.054,0.081,0.075c0.954,0.665,2.269,0.439,2.934-0.516
		c0.118-0.155,0.199-0.338,0.257-0.51l44.374,13.38c-0.096,0.37-0.058,0.75,0.092,1.094L812.397,751.438z M917.604,698.072
		c-0.767-0.541-1.835-0.359-2.376,0.419c-0.081,0.123-0.145,0.246-0.193,0.386l-44.368-13.384c0.208-0.82-0.092-1.722-0.832-2.242
		c-0.263-0.177-0.554-0.295-0.848-0.338l4.882-38.736c0.225,0.021,0.467-0.032,0.676-0.15c0.096-0.064,0.188-0.135,0.268-0.22
		l79.629,66.078c-0.021,0.038-0.054,0.06-0.069,0.091c-0.15,0.21-0.252,0.44-0.327,0.66l-35.764-10.782
		C918.441,699.193,918.194,698.485,917.604,698.072 M966.286,755.16l-48.483-54.47c0.081-0.069,0.156-0.161,0.215-0.247
		c0.091-0.129,0.161-0.263,0.209-0.402l35.764,10.788c-0.268,1.03,0.098,2.167,1.025,2.811c0.617,0.44,1.363,0.563,2.044,0.413
		l10.165,40.604C966.871,754.758,966.555,754.935,966.286,755.16 M967.857,754.543c-0.155,0.006-0.3,0.033-0.451,0.064
		l-10.148-40.603c0.553-0.161,1.063-0.493,1.427-1.003c0.826-1.191,0.542-2.838-0.648-3.675c-1.11-0.768-2.586-0.569-3.46,0.424
		l-79.635-66.095c0.263-0.376,0.312-0.891,0.064-1.32c-0.075-0.128-0.171-0.229-0.269-0.321l8.128-11.587
		c0.504,0.311,1.163,0.349,1.717,0.037c0.67-0.38,0.97-1.147,0.809-1.861l83.218-24.021c0.038,0.124,0.092,0.252,0.161,0.359
		c0.5,0.901,1.577,1.287,2.516,0.955l24.119,60.456c-0.424,0.188-0.811,0.483-1.1,0.896c-0.826,1.19-0.537,2.832,0.654,3.664
		c0.541,0.375,1.181,0.52,1.797,0.444l8.25,55.747c-0.638,0.146-1.062,0.762-0.944,1.411c0.113,0.676,0.757,1.126,1.433,1.003
		c0.193-0.032,0.365-0.107,0.51-0.209l11.062,12.971c-0.402,0.37-0.618,0.944-0.521,1.54c0.049,0.22,0.134,0.435,0.241,0.617
		l-11.512,8.191c-0.273-0.339-0.719-0.526-1.18-0.446c-0.628,0.107-1.052,0.677-1.02,1.293l-32.529,3.331
		C970.363,755.498,969.221,754.501,967.857,754.543 M968.952,759.607c0.992-0.413,1.669-1.395,1.637-2.521
		c-0.006-0.026-0.017-0.054-0.012-0.075l32.524-3.336c0.032,0.139,0.087,0.268,0.161,0.38l-27.192,19.345
		c-0.466-0.585-1.223-0.923-2.017-0.772c-0.097,0.016-0.183,0.043-0.263,0.069L968.952,759.607z M974.788,776.779
		c0.092-0.012,0.178-0.044,0.27-0.081l6.64,18.014c-0.61,0.273-1.041,0.901-1.019,1.614c0.037,0.938,0.832,1.674,1.765,1.642
		c0.15,0,0.301-0.037,0.435-0.086l16.04,43.484c-0.226,0.096-0.424,0.235-0.596,0.392l-53.966-53.462l28.185-12.649
		C972.954,776.457,973.85,776.945,974.788,776.779 M1001.552,864.03c0.016-0.043,0.037-0.075,0.06-0.107
		c0.149-0.343,0.187-0.708,0.149-1.067l13.454-2.13l18.115,20.229c-0.203,0.188-0.364,0.413-0.499,0.644L1001.552,864.03z
		 M1032.729,881.775c-0.037,0.064-0.075,0.118-0.107,0.188c-0.182,0.435-0.257,0.879-0.247,1.319l-71.485,4.002
		c-0.027-0.284-0.102-0.542-0.23-0.783l37.261-22.252c0.215,0.333,0.527,0.606,0.918,0.772c0.965,0.419,2.075,0.054,2.617-0.826
		L1032.729,881.775z M1001.734,862.652c-0.135-0.639-0.569-1.219-1.218-1.497c-1.073-0.467-2.317,0.026-2.779,1.094
		c-0.112,0.263-0.172,0.542-0.172,0.816l-16.521,0.568l17.343-18.717c0.387,0.312,0.88,0.515,1.427,0.493
		c0.483-0.016,0.912-0.193,1.255-0.472l13.985,15.616L1001.734,862.652z M936.551,777.519l35.781-2.569
		c0.011,0.038,0,0.075,0.006,0.124c0.025,0.134,0.063,0.273,0.117,0.401l-28.248,12.671l-8.482-8.395
		C936.272,779.16,936.584,778.366,936.551,777.519 M932.287,780.523c0.525,0.215,1.104,0.295,1.7,0.182
		c0.628-0.106,1.175-0.4,1.604-0.805l8.421,8.342l-17.992,8.058c-0.111-0.199-0.272-0.364-0.482-0.482L932.287,780.523z
		 M874.287,812.73l16.673,41.848l-19.393-3.632c0.13-0.911-0.354-1.845-1.239-2.225c-0.177-0.076-0.349-0.114-0.53-0.146
		l3.685-35.738C873.751,812.859,874.024,812.812,874.287,812.73 M867.693,849.552l-83.185-45.973
		c0.033-0.048,0.054-0.091,0.081-0.14c0.102-0.23,0.15-0.472,0.182-0.703l37.196,3.391c-0.021,0.678,0.365,1.325,1.02,1.615
		c0.869,0.37,1.861-0.021,2.242-0.886c0.06-0.14,0.098-0.284,0.113-0.429l46.15,4.217c-0.038,0.847,0.438,1.668,1.271,2.038
		c0.161,0.069,0.338,0.107,0.521,0.14l-3.686,35.737C868.848,848.521,868.106,848.893,867.693,849.552 M893.959,865.859
		c-0.227,0.521-0.215,1.084-0.043,1.577l-58.639,24.875c-0.091-0.172-0.203-0.333-0.349-0.478l33.281-39.509
		c0.133,0.107,0.278,0.198,0.434,0.269c1.078,0.456,2.313-0.032,2.779-1.1c0.048-0.113,0.08-0.241,0.106-0.354l19.511,3.653
		l3.98,9.993C894.564,864.996,894.174,865.366,893.959,865.859 M944.232,864.921l-46.246,1.614
		c-0.063-0.751-0.515-1.459-1.249-1.771c-0.51-0.214-1.052-0.22-1.529-0.048l-3.933-9.881l52.975,9.924
		C944.244,864.813,944.228,864.867,944.232,864.921 M944.368,864.299c-0.038,0.08-0.061,0.171-0.081,0.268l-53.103-9.94
		l-16.72-41.965c0.305-0.145,0.563-0.349,0.788-0.617l30.952,22.257c-0.279,0.43-0.407,0.966-0.316,1.513
		c0.209,1.148,1.298,1.904,2.446,1.711c0.499-0.091,0.918-0.354,1.233-0.718l34.96,27.202
		C944.475,864.095,944.411,864.191,944.368,864.299 M961.759,864.305l-14.14,0.503c-0.061-0.6-0.425-1.137-1.01-1.389
		c-0.697-0.312-1.48-0.107-1.953,0.445l-34.959-27.203c0.032-0.048,0.054-0.097,0.087-0.15l52.071,27.401
		C961.802,864.035,961.77,864.165,961.759,864.305 M964.216,864.229c-0.06-0.413-0.322-0.794-0.735-0.971
		c-0.563-0.252-1.212-0.032-1.533,0.473l-52.067-27.392c0.177-0.38,0.247-0.814,0.161-1.261c-0.118-0.681-0.554-1.238-1.132-1.513
		l9.939-22.557c0.227,0.08,0.461,0.112,0.709,0.064c0.778-0.14,1.298-0.875,1.153-1.657c-0.07-0.435-0.35-0.8-0.719-0.998
		l4.559-10.349c0.194,0.064,0.396,0.081,0.612,0.049c0.671-0.123,1.115-0.757,1.003-1.432c-0.017-0.081-0.042-0.14-0.064-0.199
		l18.062-8.105l54.015,53.515c-0.355,0.387-0.569,0.913-0.548,1.481c0.021,0.553,0.252,1.035,0.617,1.405l-17.482,18.872
		L964.216,864.229z M980.851,863.843l16.731-0.585c0.021,0.29,0.107,0.568,0.24,0.815l-37.26,22.263
		c-0.075-0.107-0.167-0.215-0.258-0.316L980.851,863.843z M968.684,987.448l-9.575-97.873c0.204-0.031,0.397-0.08,0.579-0.155
		l21.34,41.049c-0.525,0.311-0.874,0.874-0.848,1.518c0.038,0.949,0.832,1.679,1.766,1.652c0.23-0.011,0.456-0.07,0.644-0.155
		l6.518,12.541c-0.37,0.22-0.618,0.639-0.601,1.105c0.021,0.682,0.601,1.213,1.287,1.196c0.167-0.017,0.316-0.048,0.462-0.118
		l15.39,29.606c-0.648,0.392-1.083,1.094-1.057,1.909c0.011,0.107,0.025,0.204,0.043,0.312l-34.552,8.411
		C969.886,987.856,969.328,987.433,968.684,987.448 M969.982,989.524c0.112-0.214,0.177-0.439,0.16-0.697
		c0-0.06-0.01-0.118-0.021-0.193l34.563-8.4c0.225,0.805,0.928,1.395,1.775,1.485l-1.92,28.543L969.982,989.524z M1004.238,1017.532
		l0.473-6.926l31.72,19.039c-0.016,0.042-0.043,0.085-0.053,0.116l-29.435-8.389c0.069-0.273,0.117-0.563,0.102-0.863
		C1006.996,1018.927,1005.769,1017.688,1004.238,1017.532 M1055.92,1052.663l-20.954-12.96c0.103-0.209,0.173-0.45,0.161-0.697
		c-0.026-0.8-0.691-1.411-1.485-1.369c-0.445,0.012-0.837,0.242-1.084,0.575l-9.623-5.955c0.091-0.177,0.138-0.381,0.134-0.584
		c-0.027-0.687-0.602-1.229-1.287-1.196c-0.381,0.005-0.719,0.203-0.934,0.493l-14.222-8.798c0.107-0.188,0.193-0.396,0.264-0.605
		l29.433,8.384c-0.015,0.097-0.025,0.193-0.021,0.29c0.021,0.676,0.596,1.207,1.277,1.196c0.258-0.021,0.492-0.097,0.687-0.235
		l17.955,21.124C1056.107,1052.428,1056,1052.54,1055.92,1052.663 M1007.807,981.424l48.574,70.757h-0.011l-17.966-21.114
		c0.237-0.226,0.382-0.553,0.371-0.917c-0.021-0.687-0.596-1.218-1.283-1.196c-0.396,0.016-0.745,0.225-0.954,0.525l-31.811-19.098
		l1.926-28.64c0.044-0.011,0.085,0,0.123,0.005C1007.152,981.73,1007.512,981.606,1007.807,981.424 M1007.206,977.604
		c-0.188-0.059-0.381-0.085-0.585-0.074c-0.279,0.005-0.563,0.08-0.805,0.198l-15.391-29.611c0.349-0.23,0.574-0.628,0.553-1.078
		c-0.016-0.693-0.596-1.224-1.276-1.196c-0.15,0-0.279,0.048-0.408,0.091l-6.528-12.553c0.51-0.316,0.848-0.869,0.82-1.508
		c-0.032-0.949-0.82-1.679-1.764-1.646c-0.215,0.011-0.43,0.06-0.618,0.155l-21.345-41.074c0.634-0.365,1.063-1.046,1.052-1.819
		l71.48-4.007c0.097,1.101,0.762,2.119,1.851,2.58c0.079,0.043,0.166,0.054,0.258,0.081L1007.206,977.604z M1033.486,880.837
		l-18.041-20.144l20.492-3.245l-0.482,22.647C1034.73,880.107,1034.038,880.365,1033.486,880.837 M1086.528,849.43
		c0.048,0.225,0.135,0.438,0.247,0.627l-20.717,13.341c-0.15-0.177-0.327-0.343-0.563-0.445c-0.725-0.306-1.566,0.026-1.878,0.751
		c-0.177,0.413-0.145,0.863,0.054,1.229l-9.511,6.126c-0.118-0.155-0.278-0.284-0.473-0.381c-0.633-0.263-1.356,0.027-1.631,0.66
		c-0.155,0.349-0.123,0.734,0.038,1.05l-14.055,9.057c-0.321-0.467-0.762-0.854-1.314-1.095c-0.348-0.155-0.719-0.226-1.078-0.253
		l0.482-22.68L1086.528,849.43z M1037.842,768.281l-1.904,88.963l-20.653,3.267l-14.064-15.712c0.407-0.396,0.648-0.955,0.633-1.571
		c-0.033-0.762-0.462-1.417-1.084-1.76l36.542-73.271C1037.477,768.249,1037.658,768.276,1037.842,768.281 M1037.123,768.126
		l-36.542,73.251c-0.274-0.118-0.591-0.193-0.912-0.183c-0.198,0.005-0.381,0.06-0.563,0.106l-16.045-43.472
		c0.628-0.269,1.063-0.902,1.035-1.62c-0.037-0.944-0.826-1.68-1.775-1.637c-0.145,0-0.295,0.027-0.435,0.075l-6.647-18.003
		c0.827-0.354,1.348-1.196,1.272-2.103l59.668-7.575C1036.308,767.493,1036.661,767.922,1037.123,768.126 M1036.71,765.305
		c-0.408,0.364-0.622,0.906-0.563,1.475l-59.658,7.569v-0.011c-0.041-0.289-0.149-0.558-0.3-0.778l27.192-19.338
		c0.279,0.3,0.702,0.472,1.148,0.396c0.67-0.112,1.121-0.756,0.997-1.438c-0.021-0.139-0.079-0.273-0.145-0.381l11.533-8.207
		c0.375,0.456,0.981,0.713,1.609,0.601c0.284-0.048,0.536-0.178,0.746-0.338L1036.71,765.305z M1017.935,741.841
		c-0.273,0.043-0.51,0.166-0.714,0.311l-11.066-12.971c0.279-0.284,0.424-0.687,0.344-1.084c-0.107-0.633-0.676-1.062-1.304-1.019
		l-8.245-55.736c0.606-0.112,1.164-0.445,1.572-0.955l58.75,42.953c-0.284,0.439-0.413,0.971-0.322,1.534
		c0.06,0.284,0.161,0.536,0.312,0.777l-37.701,26.812C1019.185,741.99,1018.572,741.723,1017.935,741.841 M1019.748,742.764
		c-0.027-0.042-0.043-0.092-0.076-0.135l37.707-26.822c0.461,0.591,1.229,0.918,2.022,0.773c0.536-0.097,0.992-0.397,1.298-0.795
		l8.015,5.58L1019.748,742.764z M1060.812,715.619c0.269-0.429,0.393-0.943,0.301-1.48c-0.209-1.148-1.298-1.915-2.451-1.711
		c-0.124,0.026-0.236,0.054-0.349,0.102l-28.094-66.695c0.611-0.295,1.041-0.862,1.159-1.529l37.438,4.839
		c-0.086,1.004,0.547,1.932,1.534,2.216c0.284,0.075,0.563,0.091,0.837,0.06l7.998,45.57c-0.595,0.123-1.094,0.563-1.271,1.195
		c-0.253,0.901,0.278,1.835,1.19,2.099c0.226,0.053,0.45,0.063,0.665,0.037l2.441,13.931c-0.424,0.097-0.778,0.413-0.907,0.859
		c-0.069,0.262-0.059,0.509,0.026,0.745l-12.407,5.413L1060.812,715.619z M1069.115,721.402l12.289-5.375
		c0.162,0.301,0.426,0.521,0.764,0.611c0.031,0.011,0.059,0.016,0.091,0.021l-1.486,12.863L1069.115,721.402z M1074.738,786.843
		c-0.129-0.033-0.252-0.043-0.381-0.064l6.565-56.905l4.598,3.196l2.892,16.479c-0.735,0.173-1.357,0.708-1.577,1.497
		c-0.279,1.009,0.246,2.05,1.18,2.468l-13.072,33.414C1074.872,786.896,1074.803,786.869,1074.738,786.843 M1114.88,835.615
		c-0.382,0.054-0.74,0.204-1.041,0.435l-16.077-18.668c0.156-0.166,0.295-0.37,0.354-0.617c0.216-0.762-0.235-1.544-0.992-1.754
		c-0.439-0.129-0.879-0.027-1.217,0.225l-7.382-8.566c0.14-0.15,0.246-0.327,0.3-0.525c0.183-0.66-0.198-1.347-0.857-1.523
		c-0.381-0.102-0.752-0.021-1.052,0.182l-10.905-12.659c0.412-0.387,0.734-0.879,0.895-1.459c0.425-1.519-0.369-3.085-1.78-3.686
		l13.077-33.409c0.033,0.01,0.071,0.031,0.108,0.043c1.116,0.311,2.285-0.354,2.597-1.476c0.306-1.116-0.349-2.285-1.47-2.591
		c-0.284-0.081-0.563-0.092-0.826-0.054l-2.864-16.291l20.942,14.59c-0.264,0.425-0.387,0.939-0.296,1.476
		c0.184,1.046,1.105,1.771,2.141,1.732L1114.88,835.615z M1154.093,724.325c-0.348-0.578-1.024-0.9-1.732-0.783
		c-0.928,0.161-1.545,1.054-1.389,1.98c0.031,0.149,0.08,0.273,0.139,0.407l-40.839,21.919c-0.429-0.729-1.276-1.164-2.167-1.002
		c-0.316,0.058-0.601,0.187-0.848,0.358l-23.925-30.84c0.166-0.155,0.3-0.344,0.364-0.585c0.027-0.118,0.037-0.236,0.032-0.343
		l103.039-9.591c0.006,0.042,0,0.085,0.006,0.117c0.043,0.263,0.133,0.478,0.235,0.697L1154.093,724.325z"/>
</g>
</svg>
